<?xml version="1.0" encoding="utf-8"?>
<!-- Generator: Adobe Illustrator 25.2.0, SVG Export Plug-In . SVG Version: 6.00 Build 0)  -->
<svg version="1.1" id="Layer_1" xmlns="http://www.w3.org/2000/svg" xmlns:xlink="http://www.w3.org/1999/xlink" x="0px" y="0px"
	 viewBox="0 0 5000 5000" style="enable-background:new 0 0 5000 5000;" xml:space="preserve">
<style type="text/css">
	.st0{stroke:#FFFFFF;stroke-miterlimit:10;}
	.st1{fill-rule:evenodd;clip-rule:evenodd;fill:#EEF2FF;}
	.st2{fill:#D89A6C;}
	.st3{fill:#4C4C4C;stroke:#1C1C1C;stroke-miterlimit:10;}
	.st4{fill:#4D4D4D;stroke:#1C1C1C;stroke-miterlimit:10;}
	.st5{fill:#4E4E4E;stroke:#1C1C1C;stroke-miterlimit:10;}
	.st6{fill:#4F4F4F;stroke:#1C1C1C;stroke-miterlimit:10;}
	.st7{fill:#505050;stroke:#1C1C1C;stroke-miterlimit:10;}
	.st8{fill:#515151;stroke:#1C1C1C;stroke-miterlimit:10;}
	.st9{fill:#525252;stroke:#1C1C1C;stroke-miterlimit:10;}
	.st10{fill:#535353;stroke:#1C1C1C;stroke-miterlimit:10;}
	.st11{fill:#545454;stroke:#1C1C1C;stroke-miterlimit:10;}
	.st12{fill:#555555;stroke:#1C1C1C;stroke-miterlimit:10;}
	.st13{fill:#565656;stroke:#1C1C1C;stroke-miterlimit:10;}
	.st14{fill:#575757;stroke:#1C1C1C;stroke-miterlimit:10;}
	.st15{fill:#585858;stroke:#1C1C1C;stroke-miterlimit:10;}
	.st16{fill:#595959;stroke:#1C1C1C;stroke-miterlimit:10;}
	.st17{fill:#5A5A5A;stroke:#1C1C1C;stroke-miterlimit:10;}
	.st18{fill:#5B5B5B;stroke:#1C1C1C;stroke-miterlimit:10;}
	.st19{fill:#5C5C5C;stroke:#1C1C1C;stroke-miterlimit:10;}
	.st20{fill:#5D5D5D;stroke:#1C1C1C;stroke-miterlimit:10;}
	.st21{fill:#5E5E5E;stroke:#1C1C1C;stroke-miterlimit:10;}
	.st22{fill:#5F5F5F;stroke:#1C1C1C;stroke-miterlimit:10;}
	.st23{fill:#606060;stroke:#1C1C1C;stroke-miterlimit:10;}
	.st24{fill:#616161;stroke:#1C1C1C;stroke-miterlimit:10;}
	.st25{fill:#626262;stroke:#1C1C1C;stroke-miterlimit:10;}
	.st26{fill:#636363;stroke:#1C1C1C;stroke-miterlimit:10;}
	.st27{fill:#646464;stroke:#1C1C1C;stroke-miterlimit:10;}
	.st28{fill:#656565;stroke:#1C1C1C;stroke-miterlimit:10;}
	.st29{fill:#666666;stroke:#1C1C1C;stroke-miterlimit:10;}
	.st30{fill:#676767;stroke:#1C1C1C;stroke-miterlimit:10;}
	.st31{fill:#686868;stroke:#1C1C1C;stroke-miterlimit:10;}
	.st32{fill:#696969;stroke:#1C1C1C;stroke-miterlimit:10;}
	.st33{fill:#6A6A6A;stroke:#1C1C1C;stroke-miterlimit:10;}
	.st34{fill:#6B6B6B;stroke:#1C1C1C;stroke-miterlimit:10;}
	.st35{fill:#6C6C6C;stroke:#1C1C1C;stroke-miterlimit:10;}
	.st36{fill:#6D6D6D;stroke:#1C1C1C;stroke-miterlimit:10;}
	.st37{fill:#6E6E6E;stroke:#1C1C1C;stroke-miterlimit:10;}
	.st38{fill:#6F6F6F;stroke:#1C1C1C;stroke-miterlimit:10;}
	.st39{fill:#707070;stroke:#1C1C1C;stroke-miterlimit:10;}
	.st40{fill:#717171;stroke:#1C1C1C;stroke-miterlimit:10;}
	.st41{fill:#727272;stroke:#1C1C1C;stroke-miterlimit:10;}
	.st42{fill:#737373;stroke:#1C1C1C;stroke-miterlimit:10;}
	.st43{fill:#747474;stroke:#1C1C1C;stroke-miterlimit:10;}
	.st44{fill:#757575;stroke:#1C1C1C;stroke-miterlimit:10;}
	.st45{fill:#767676;stroke:#1C1C1C;stroke-miterlimit:10;}
	.st46{fill:#777777;stroke:#1C1C1C;stroke-miterlimit:10;}
	.st47{fill:#787878;stroke:#1C1C1C;stroke-miterlimit:10;}
	.st48{fill:#797979;stroke:#1C1C1C;stroke-miterlimit:10;}
	.st49{fill:#7A7A7A;stroke:#1C1C1C;stroke-miterlimit:10;}
	.st50{fill:#7B7B7B;stroke:#1C1C1C;stroke-miterlimit:10;}
	.st51{fill:#7C7C7C;stroke:#1C1C1C;stroke-miterlimit:10;}
	.st52{fill:#7D7D7D;stroke:#1C1C1C;stroke-miterlimit:10;}
	.st53{fill:#7E7E7E;stroke:#1C1C1C;stroke-miterlimit:10;}
	.st54{fill:#7F7F7F;stroke:#1C1C1C;stroke-miterlimit:10;}
	.st55{fill:#808080;stroke:#1C1C1C;stroke-miterlimit:10;}
	.st56{fill:#818181;stroke:#1C1C1C;stroke-miterlimit:10;}
	.st57{fill:#828282;stroke:#1C1C1C;stroke-miterlimit:10;}
	.st58{fill:#838383;stroke:#1C1C1C;stroke-miterlimit:10;}
	.st59{fill:#848484;stroke:#1C1C1C;stroke-miterlimit:10;}
	.st60{fill:#858585;stroke:#1C1C1C;stroke-miterlimit:10;}
	.st61{fill:#868686;stroke:#1C1C1C;stroke-miterlimit:10;}
	.st62{fill:#878787;stroke:#1C1C1C;stroke-miterlimit:10;}
	.st63{fill:#888888;stroke:#1C1C1C;stroke-miterlimit:10;}
	.st64{fill:#898989;stroke:#1C1C1C;stroke-miterlimit:10;}
	.st65{fill:#8A8A8A;stroke:#1C1C1C;stroke-miterlimit:10;}
	.st66{fill:#8B8B8B;stroke:#1C1C1C;stroke-miterlimit:10;}
	.st67{fill:#8C8C8C;stroke:#1C1C1C;stroke-miterlimit:10;}
	.st68{fill:#8D8D8D;stroke:#1C1C1C;stroke-miterlimit:10;}
	.st69{fill:#8E8E8E;stroke:#1C1C1C;stroke-miterlimit:10;}
	.st70{fill:#8F8F8F;stroke:#1C1C1C;stroke-miterlimit:10;}
	.st71{fill:#909090;stroke:#1C1C1C;stroke-miterlimit:10;}
	.st72{fill:#919191;stroke:#1C1C1C;stroke-miterlimit:10;}
	.st73{fill:#929292;stroke:#1C1C1C;stroke-miterlimit:10;}
	.st74{fill:#939393;stroke:#1C1C1C;stroke-miterlimit:10;}
	.st75{fill:#949494;stroke:#1C1C1C;stroke-miterlimit:10;}
	.st76{fill:#959595;stroke:#1C1C1C;stroke-miterlimit:10;}
	.st77{fill:#969696;stroke:#1C1C1C;stroke-miterlimit:10;}
	.st78{fill:#979797;stroke:#1C1C1C;stroke-miterlimit:10;}
	.st79{fill:#989898;stroke:#1C1C1C;stroke-miterlimit:10;}
	.st80{fill:#999999;stroke:#1C1C1C;stroke-miterlimit:10;}
	.st81{fill:#9A9A9A;stroke:#1C1C1C;stroke-miterlimit:10;}
	.st82{fill:#9B9B9B;stroke:#1C1C1C;stroke-miterlimit:10;}
	.st83{fill:#9C9C9C;stroke:#1C1C1C;stroke-miterlimit:10;}
	.st84{fill:#9D9D9D;stroke:#1C1C1C;stroke-miterlimit:10;}
	.st85{fill:#9E9E9E;stroke:#1C1C1C;stroke-miterlimit:10;}
	.st86{fill:#9F9F9F;stroke:#1C1C1C;stroke-miterlimit:10;}
	.st87{fill:#A0A0A0;stroke:#1C1C1C;stroke-miterlimit:10;}
	.st88{fill:#A1A1A1;stroke:#1C1C1C;stroke-miterlimit:10;}
	.st89{fill:#A2A2A2;stroke:#1C1C1C;stroke-miterlimit:10;}
	.st90{fill:#A3A3A3;stroke:#1C1C1C;stroke-miterlimit:10;}
	.st91{fill:#A4A4A4;stroke:#1C1C1C;stroke-miterlimit:10;}
	.st92{fill:#A5A5A5;stroke:#1C1C1C;stroke-miterlimit:10;}
	.st93{fill:#A6A6A6;stroke:#1C1C1C;stroke-miterlimit:10;}
	.st94{fill:#A7A7A7;stroke:#1C1C1C;stroke-miterlimit:10;}
	.st95{fill:#A8A8A8;stroke:#1C1C1C;stroke-miterlimit:10;}
	.st96{fill:#A9A9A9;stroke:#1C1C1C;stroke-miterlimit:10;}
	.st97{fill:#AAAAAA;stroke:#1C1C1C;stroke-miterlimit:10;}
	.st98{fill:#ABABAB;stroke:#1C1C1C;stroke-miterlimit:10;}
	.st99{fill:#ACACAC;stroke:#1C1C1C;stroke-miterlimit:10;}
	.st100{fill:#ADADAD;stroke:#1C1C1C;stroke-miterlimit:10;}
	.st101{fill:#AEAEAE;stroke:#1C1C1C;stroke-miterlimit:10;}
	.st102{fill:#AFAFAF;stroke:#1C1C1C;stroke-miterlimit:10;}
	.st103{fill:#B0B0B0;stroke:#1C1C1C;stroke-miterlimit:10;}
	.st104{fill:#B1B1B1;stroke:#1C1C1C;stroke-miterlimit:10;}
	.st105{fill:#B2B2B2;stroke:#1C1C1C;stroke-miterlimit:10;}
	.st106{fill:#B3B3B3;stroke:#1C1C1C;stroke-miterlimit:10;}
	.st107{fill:#B4B4B4;stroke:#1C1C1C;stroke-miterlimit:10;}
	.st108{fill:#B5B5B5;stroke:#1C1C1C;stroke-miterlimit:10;}
	.st109{fill:#B6B6B6;stroke:#1C1C1C;stroke-miterlimit:10;}
	.st110{fill:#B7B7B7;stroke:#1C1C1C;stroke-miterlimit:10;}
	.st111{fill:#B8B8B8;stroke:#1C1C1C;stroke-miterlimit:10;}
	.st112{fill:#B9B9B9;stroke:#1C1C1C;stroke-miterlimit:10;}
	.st113{fill:#BABABA;stroke:#1C1C1C;stroke-miterlimit:10;}
	.st114{fill:#BBBBBB;stroke:#1C1C1C;stroke-miterlimit:10;}
	.st115{fill:#BCBCBC;stroke:#1C1C1C;stroke-miterlimit:10;}
	.st116{fill:#BDBDBD;stroke:#1C1C1C;stroke-miterlimit:10;}
	.st117{fill:#BEBEBE;stroke:#1C1C1C;stroke-miterlimit:10;}
	.st118{fill:#BFBFBF;stroke:#1C1C1C;stroke-miterlimit:10;}
	.st119{fill:#C0C0C0;stroke:#1C1C1C;stroke-miterlimit:10;}
	.st120{fill:#C1C1C1;stroke:#1C1C1C;stroke-miterlimit:10;}
	.st121{fill:#C2C2C2;stroke:#1C1C1C;stroke-miterlimit:10;}
	.st122{fill:#C3C3C3;stroke:#1C1C1C;stroke-miterlimit:10;}
	.st123{fill:#C4C4C4;stroke:#1C1C1C;stroke-miterlimit:10;}
	.st124{fill:#C5C5C5;stroke:#1C1C1C;stroke-miterlimit:10;}
	.st125{fill:#C6C6C6;stroke:#1C1C1C;stroke-miterlimit:10;}
	.st126{fill:#C7C7C7;stroke:#1C1C1C;stroke-miterlimit:10;}
	.st127{fill:#C8C8C8;stroke:#1C1C1C;stroke-miterlimit:10;}
	.st128{fill:#C9C9C9;stroke:#1C1C1C;stroke-miterlimit:10;}
	.st129{fill:#CACACA;stroke:#1C1C1C;stroke-miterlimit:10;}
	.st130{fill:#CBCBCB;stroke:#1C1C1C;stroke-miterlimit:10;}
	.st131{fill:#CCCCCC;stroke:#1C1C1C;stroke-miterlimit:10;}
	.st132{fill:#CDCDCD;stroke:#1C1C1C;stroke-miterlimit:10;}
	.st133{fill:#CECECE;stroke:#1C1C1C;stroke-miterlimit:10;}
	.st134{opacity:0.3;}
	.st135{fill:#16E5B1;}
	.st136{fill:#0A0A5B;}
	.st137{fill:#FFFFFF;}
	.st138{fill-rule:evenodd;clip-rule:evenodd;fill:#F6DE90;}
	.st139{fill-rule:evenodd;clip-rule:evenodd;fill:none;stroke:#F6DE90;stroke-width:3;stroke-miterlimit:10;}
	.st140{fill-rule:evenodd;clip-rule:evenodd;fill:#FF7E74;}
	.st141{fill-rule:evenodd;clip-rule:evenodd;fill:#15214F;}
	.st142{fill-rule:evenodd;clip-rule:evenodd;fill:#FF947E;}
	.st143{fill-rule:evenodd;clip-rule:evenodd;fill:#FBFBFA;}
	.st144{fill-rule:evenodd;clip-rule:evenodd;fill:#14214F;}
	.st145{fill-rule:evenodd;clip-rule:evenodd;fill:#565656;}
	.st146{clip-path:url(#SVGID_2_);}
	.st147{fill-rule:evenodd;clip-rule:evenodd;fill:#841212;}
	.st148{clip-path:url(#SVGID_4_);}
	.st149{fill:#E5AC7A;}
	.st150{fill:#F9BFBB;}
	.st151{fill:#E5B483;}
	.st152{fill:#3A1010;}
	.st153{fill:#662820;}
	.st154{fill:#534741;}
	.st155{fill:#7F3326;}
	.st156{fill:#C18421;}
	.st157{fill:#306664;}
	.st158{fill:#593EB1;}
</style>
<rect class="st0" width="5000" height="5000"/>
<g>
	<path class="st1" d="M4203.4,4952.9H1164.1c-249.1,0-467.9-165.3-536.1-404.8l-367.1-1290c-103.2-362.5,175.8-720.8,552.5-709.8
		l1572.9,46.3c48.7,1.4,97.4-3.5,144.8-14.7L4075,2214.6c350.1-82.8,685.8,182.7,685.8,542.4v1638.5
		C4760.8,4703.3,4511.3,4952.9,4203.4,4952.9z"/>
	<g>
		<path class="st2" d="M2474.3,2494.7c2.9-3.5,5.4-7.2,7.9-11c6.6-10.1,12.9-20.5,19.6-30.5c2.9-4.3,6-8.7,10-12
			c4.1-3.3,9.3-5.4,14.5-4.7c5.2,0.8,10,4.9,10.4,10.2c0.3,4.6-2.5,8.7-5.2,12.4c-3.6,4.9-7.1,9.7-10.7,14.6
			c-4.8,6.6-9.6,13.1-14.8,19.5c-10.4,12.9-22.7,25.2-38.5,30.2c-5,1.6-23.8,1.5-17.1-8.4c2.6-3.8,8.5-6,12.2-8.8
			C2466.9,2502.9,2470.8,2499,2474.3,2494.7z"/>
	</g>
	<g>
		<g>
			
				<ellipse transform="matrix(5.180830e-02 -0.9987 0.9987 5.180830e-02 -54.2639 4571.7666)" class="st3" cx="2380.4" cy="2314.5" rx="213.5" ry="122.2"/>
			
				<ellipse transform="matrix(5.180830e-02 -0.9987 0.9987 5.180830e-02 -53.9166 4572.0581)" class="st4" cx="2380.7" cy="2314.4" rx="213.5" ry="122.2"/>
			
				<ellipse transform="matrix(5.180830e-02 -0.9987 0.9987 5.180830e-02 -53.5694 4572.3496)" class="st5" cx="2381.1" cy="2314.4" rx="213.5" ry="122.2"/>
			
				<ellipse transform="matrix(5.180830e-02 -0.9987 0.9987 5.180830e-02 -53.2221 4572.6411)" class="st6" cx="2381.4" cy="2314.3" rx="213.5" ry="122.2"/>
			
				<ellipse transform="matrix(5.180830e-02 -0.9987 0.9987 5.180830e-02 -52.8748 4572.9326)" class="st7" cx="2381.7" cy="2314.3" rx="213.5" ry="122.2"/>
			
				<ellipse transform="matrix(5.180830e-02 -0.9987 0.9987 5.180830e-02 -52.5276 4573.2246)" class="st8" cx="2382" cy="2314.3" rx="213.5" ry="122.2"/>
			
				<ellipse transform="matrix(5.180830e-02 -0.9987 0.9987 5.180830e-02 -52.1803 4573.5161)" class="st9" cx="2382.4" cy="2314.2" rx="213.5" ry="122.2"/>
			
				<ellipse transform="matrix(5.180830e-02 -0.9987 0.9987 5.180830e-02 -51.833 4573.8076)" class="st10" cx="2382.7" cy="2314.2" rx="213.5" ry="122.2"/>
			
				<ellipse transform="matrix(5.180830e-02 -0.9987 0.9987 5.180830e-02 -51.4858 4574.0991)" class="st11" cx="2383" cy="2314.2" rx="213.5" ry="122.2"/>
			
				<ellipse transform="matrix(5.180830e-02 -0.9987 0.9987 5.180830e-02 -51.1385 4574.3911)" class="st12" cx="2383.4" cy="2314.1" rx="213.5" ry="122.2"/>
			
				<ellipse transform="matrix(5.180830e-02 -0.9987 0.9987 5.180830e-02 -50.7912 4574.6826)" class="st13" cx="2383.7" cy="2314.1" rx="213.5" ry="122.2"/>
			
				<ellipse transform="matrix(5.180830e-02 -0.9987 0.9987 5.180830e-02 -50.444 4574.9741)" class="st14" cx="2384" cy="2314.1" rx="213.5" ry="122.2"/>
			
				<ellipse transform="matrix(5.180830e-02 -0.9987 0.9987 5.180830e-02 -50.0967 4575.2656)" class="st15" cx="2384.3" cy="2314" rx="213.5" ry="122.2"/>
			
				<ellipse transform="matrix(5.180830e-02 -0.9987 0.9987 5.180830e-02 -49.7494 4575.5576)" class="st16" cx="2384.7" cy="2314" rx="213.5" ry="122.2"/>
			
				<ellipse transform="matrix(5.180830e-02 -0.9987 0.9987 5.180830e-02 -49.4022 4575.8491)" class="st17" cx="2385" cy="2313.9" rx="213.5" ry="122.2"/>
			
				<ellipse transform="matrix(5.180830e-02 -0.9987 0.9987 5.180830e-02 -49.0549 4576.1406)" class="st18" cx="2385.3" cy="2313.9" rx="213.5" ry="122.2"/>
			
				<ellipse transform="matrix(5.180830e-02 -0.9987 0.9987 5.180830e-02 -48.7076 4576.4321)" class="st19" cx="2385.6" cy="2313.9" rx="213.5" ry="122.2"/>
			
				<ellipse transform="matrix(5.180830e-02 -0.9987 0.9987 5.180830e-02 -48.3604 4576.7241)" class="st20" cx="2386" cy="2313.8" rx="213.5" ry="122.2"/>
			
				<ellipse transform="matrix(5.180830e-02 -0.9987 0.9987 5.180830e-02 -48.0131 4577.0156)" class="st21" cx="2386.3" cy="2313.8" rx="213.5" ry="122.2"/>
			
				<ellipse transform="matrix(5.180830e-02 -0.9987 0.9987 5.180830e-02 -47.6658 4577.3071)" class="st22" cx="2386.6" cy="2313.8" rx="213.5" ry="122.2"/>
			
				<ellipse transform="matrix(5.180830e-02 -0.9987 0.9987 5.180830e-02 -47.3186 4577.5986)" class="st23" cx="2387" cy="2313.7" rx="213.5" ry="122.2"/>
			
				<ellipse transform="matrix(5.180830e-02 -0.9987 0.9987 5.180830e-02 -46.9713 4577.8901)" class="st24" cx="2387.3" cy="2313.7" rx="213.5" ry="122.2"/>
			
				<ellipse transform="matrix(5.180830e-02 -0.9987 0.9987 5.180830e-02 -46.624 4578.1821)" class="st25" cx="2387.6" cy="2313.6" rx="213.5" ry="122.2"/>
			
				<ellipse transform="matrix(5.180830e-02 -0.9987 0.9987 5.180830e-02 -46.2768 4578.4736)" class="st26" cx="2387.9" cy="2313.6" rx="213.5" ry="122.2"/>
			
				<ellipse transform="matrix(5.180830e-02 -0.9987 0.9987 5.180830e-02 -45.9295 4578.7651)" class="st27" cx="2388.3" cy="2313.6" rx="213.5" ry="122.2"/>
			
				<ellipse transform="matrix(5.180830e-02 -0.9987 0.9987 5.180830e-02 -45.5822 4579.0566)" class="st28" cx="2388.6" cy="2313.5" rx="213.5" ry="122.2"/>
			
				<ellipse transform="matrix(5.180830e-02 -0.9987 0.9987 5.180830e-02 -45.235 4579.3486)" class="st29" cx="2388.9" cy="2313.5" rx="213.5" ry="122.2"/>
			
				<ellipse transform="matrix(5.180830e-02 -0.9987 0.9987 5.180830e-02 -44.8877 4579.6401)" class="st30" cx="2389.2" cy="2313.5" rx="213.5" ry="122.2"/>
			
				<ellipse transform="matrix(5.180830e-02 -0.9987 0.9987 5.180830e-02 -44.5404 4579.9316)" class="st31" cx="2389.6" cy="2313.4" rx="213.5" ry="122.2"/>
			
				<ellipse transform="matrix(5.180830e-02 -0.9987 0.9987 5.180830e-02 -44.1932 4580.2231)" class="st32" cx="2389.9" cy="2313.4" rx="213.5" ry="122.2"/>
			
				<ellipse transform="matrix(5.180830e-02 -0.9987 0.9987 5.180830e-02 -43.8459 4580.5151)" class="st33" cx="2390.2" cy="2313.3" rx="213.5" ry="122.2"/>
			
				<ellipse transform="matrix(5.180830e-02 -0.9987 0.9987 5.180830e-02 -43.4986 4580.8066)" class="st34" cx="2390.6" cy="2313.3" rx="213.5" ry="122.2"/>
			
				<ellipse transform="matrix(5.180830e-02 -0.9987 0.9987 5.180830e-02 -43.1514 4581.0981)" class="st35" cx="2390.9" cy="2313.3" rx="213.5" ry="122.2"/>
			
				<ellipse transform="matrix(5.180830e-02 -0.9987 0.9987 5.180830e-02 -42.8041 4581.3896)" class="st36" cx="2391.2" cy="2313.2" rx="213.5" ry="122.2"/>
			
				<ellipse transform="matrix(5.180830e-02 -0.9987 0.9987 5.180830e-02 -42.4569 4581.6816)" class="st37" cx="2391.5" cy="2313.2" rx="213.5" ry="122.2"/>
			
				<ellipse transform="matrix(5.180830e-02 -0.9987 0.9987 5.180830e-02 -42.1096 4581.9731)" class="st38" cx="2391.9" cy="2313.2" rx="213.5" ry="122.2"/>
			
				<ellipse transform="matrix(5.180830e-02 -0.9987 0.9987 5.180830e-02 -41.7623 4582.2646)" class="st39" cx="2392.2" cy="2313.1" rx="213.5" ry="122.2"/>
			
				<ellipse transform="matrix(5.180830e-02 -0.9987 0.9987 5.180830e-02 -41.4151 4582.5562)" class="st40" cx="2392.5" cy="2313.1" rx="213.5" ry="122.2"/>
			
				<ellipse transform="matrix(5.180830e-02 -0.9987 0.9987 5.180830e-02 -41.0678 4582.8477)" class="st41" cx="2392.8" cy="2313.1" rx="213.5" ry="122.2"/>
			
				<ellipse transform="matrix(5.180830e-02 -0.9987 0.9987 5.180830e-02 -40.7205 4583.1396)" class="st42" cx="2393.2" cy="2313" rx="213.5" ry="122.2"/>
			
				<ellipse transform="matrix(5.180830e-02 -0.9987 0.9987 5.180830e-02 -40.3733 4583.4312)" class="st43" cx="2393.5" cy="2313" rx="213.5" ry="122.2"/>
			
				<ellipse transform="matrix(5.180830e-02 -0.9987 0.9987 5.180830e-02 -40.026 4583.7227)" class="st44" cx="2393.8" cy="2312.9" rx="213.5" ry="122.2"/>
			
				<ellipse transform="matrix(5.180830e-02 -0.9987 0.9987 5.180830e-02 -39.6787 4584.0142)" class="st45" cx="2394.2" cy="2312.9" rx="213.5" ry="122.2"/>
			
				<ellipse transform="matrix(5.180830e-02 -0.9987 0.9987 5.180830e-02 -39.3315 4584.3062)" class="st46" cx="2394.5" cy="2312.9" rx="213.5" ry="122.2"/>
			
				<ellipse transform="matrix(5.180830e-02 -0.9987 0.9987 5.180830e-02 -38.9842 4584.5977)" class="st47" cx="2394.8" cy="2312.8" rx="213.5" ry="122.2"/>
			
				<ellipse transform="matrix(5.180830e-02 -0.9987 0.9987 5.180830e-02 -38.6369 4584.8892)" class="st48" cx="2395.1" cy="2312.8" rx="213.5" ry="122.2"/>
			
				<ellipse transform="matrix(5.180830e-02 -0.9987 0.9987 5.180830e-02 -38.2897 4585.1807)" class="st49" cx="2395.5" cy="2312.8" rx="213.5" ry="122.2"/>
			
				<ellipse transform="matrix(5.180830e-02 -0.9987 0.9987 5.180830e-02 -37.9424 4585.4727)" class="st50" cx="2395.8" cy="2312.7" rx="213.5" ry="122.2"/>
			
				<ellipse transform="matrix(5.180830e-02 -0.9987 0.9987 5.180830e-02 -37.5951 4585.7642)" class="st51" cx="2396.1" cy="2312.7" rx="213.5" ry="122.2"/>
			
				<ellipse transform="matrix(5.180830e-02 -0.9987 0.9987 5.180830e-02 -37.2479 4586.0557)" class="st52" cx="2396.4" cy="2312.6" rx="213.5" ry="122.2"/>
			
				<ellipse transform="matrix(5.180830e-02 -0.9987 0.9987 5.180830e-02 -36.9006 4586.3472)" class="st53" cx="2396.8" cy="2312.6" rx="213.5" ry="122.2"/>
			
				<ellipse transform="matrix(5.180830e-02 -0.9987 0.9987 5.180830e-02 -36.5533 4586.6392)" class="st54" cx="2397.1" cy="2312.6" rx="213.5" ry="122.2"/>
			
				<ellipse transform="matrix(5.180830e-02 -0.9987 0.9987 5.180830e-02 -36.2061 4586.9307)" class="st55" cx="2397.4" cy="2312.5" rx="213.5" ry="122.2"/>
			
				<ellipse transform="matrix(5.180830e-02 -0.9987 0.9987 5.180830e-02 -35.8588 4587.2222)" class="st56" cx="2397.8" cy="2312.5" rx="213.5" ry="122.2"/>
			
				<ellipse transform="matrix(5.180830e-02 -0.9987 0.9987 5.180830e-02 -35.5115 4587.5137)" class="st57" cx="2398.1" cy="2312.5" rx="213.5" ry="122.2"/>
			
				<ellipse transform="matrix(5.180830e-02 -0.9987 0.9987 5.180830e-02 -35.1643 4587.8052)" class="st58" cx="2398.4" cy="2312.4" rx="213.5" ry="122.2"/>
			
				<ellipse transform="matrix(5.180830e-02 -0.9987 0.9987 5.180830e-02 -34.817 4588.0972)" class="st59" cx="2398.7" cy="2312.4" rx="213.5" ry="122.2"/>
			
				<ellipse transform="matrix(5.180830e-02 -0.9987 0.9987 5.180830e-02 -34.4697 4588.3887)" class="st60" cx="2399.1" cy="2312.3" rx="213.5" ry="122.2"/>
			
				<ellipse transform="matrix(5.180830e-02 -0.9987 0.9987 5.180830e-02 -34.1225 4588.6802)" class="st61" cx="2399.4" cy="2312.3" rx="213.5" ry="122.2"/>
			
				<ellipse transform="matrix(5.180830e-02 -0.9987 0.9987 5.180830e-02 -33.7752 4588.9717)" class="st62" cx="2399.7" cy="2312.3" rx="213.5" ry="122.2"/>
			
				<ellipse transform="matrix(5.180830e-02 -0.9987 0.9987 5.180830e-02 -33.4279 4589.2637)" class="st63" cx="2400" cy="2312.2" rx="213.5" ry="122.2"/>
			
				<ellipse transform="matrix(5.180830e-02 -0.9987 0.9987 5.180830e-02 -33.0807 4589.5552)" class="st64" cx="2400.4" cy="2312.2" rx="213.5" ry="122.2"/>
			
				<ellipse transform="matrix(5.180830e-02 -0.9987 0.9987 5.180830e-02 -32.7334 4589.8467)" class="st65" cx="2400.7" cy="2312.2" rx="213.5" ry="122.2"/>
			
				<ellipse transform="matrix(5.180830e-02 -0.9987 0.9987 5.180830e-02 -32.3862 4590.1382)" class="st66" cx="2401" cy="2312.1" rx="213.5" ry="122.2"/>
			
				<ellipse transform="matrix(5.180830e-02 -0.9987 0.9987 5.180830e-02 -32.0389 4590.4302)" class="st67" cx="2401.4" cy="2312.1" rx="213.5" ry="122.2"/>
			
				<ellipse transform="matrix(5.180830e-02 -0.9987 0.9987 5.180830e-02 -31.6916 4590.7217)" class="st68" cx="2401.7" cy="2312.1" rx="213.5" ry="122.2"/>
			
				<ellipse transform="matrix(5.180830e-02 -0.9987 0.9987 5.180830e-02 -31.3444 4591.0132)" class="st69" cx="2402" cy="2312" rx="213.5" ry="122.2"/>
			
				<ellipse transform="matrix(5.180830e-02 -0.9987 0.9987 5.180830e-02 -30.9971 4591.3047)" class="st70" cx="2402.3" cy="2312" rx="213.5" ry="122.2"/>
			
				<ellipse transform="matrix(5.180830e-02 -0.9987 0.9987 5.180830e-02 -30.6498 4591.5967)" class="st71" cx="2402.7" cy="2311.9" rx="213.5" ry="122.2"/>
			
				<ellipse transform="matrix(5.180830e-02 -0.9987 0.9987 5.180830e-02 -30.3026 4591.8882)" class="st72" cx="2403" cy="2311.9" rx="213.5" ry="122.2"/>
			
				<ellipse transform="matrix(5.180830e-02 -0.9987 0.9987 5.180830e-02 -29.9553 4592.1797)" class="st73" cx="2403.3" cy="2311.9" rx="213.5" ry="122.2"/>
			
				<ellipse transform="matrix(5.180830e-02 -0.9987 0.9987 5.180830e-02 -29.608 4592.4712)" class="st74" cx="2403.6" cy="2311.8" rx="213.5" ry="122.2"/>
			
				<ellipse transform="matrix(5.180830e-02 -0.9987 0.9987 5.180830e-02 -29.2608 4592.7627)" class="st75" cx="2404" cy="2311.8" rx="213.5" ry="122.2"/>
			
				<ellipse transform="matrix(5.180830e-02 -0.9987 0.9987 5.180830e-02 -28.9135 4593.0547)" class="st76" cx="2404.3" cy="2311.8" rx="213.5" ry="122.2"/>
			
				<ellipse transform="matrix(5.180830e-02 -0.9987 0.9987 5.180830e-02 -28.5662 4593.3462)" class="st77" cx="2404.6" cy="2311.7" rx="213.5" ry="122.2"/>
			
				<ellipse transform="matrix(5.180830e-02 -0.9987 0.9987 5.180830e-02 -28.219 4593.6377)" class="st78" cx="2405" cy="2311.7" rx="213.5" ry="122.2"/>
			
				<ellipse transform="matrix(5.180830e-02 -0.9987 0.9987 5.180830e-02 -27.8717 4593.9292)" class="st79" cx="2405.3" cy="2311.6" rx="213.5" ry="122.2"/>
			
				<ellipse transform="matrix(5.180830e-02 -0.9987 0.9987 5.180830e-02 -27.5244 4594.2212)" class="st80" cx="2405.6" cy="2311.6" rx="213.5" ry="122.2"/>
			
				<ellipse transform="matrix(5.180830e-02 -0.9987 0.9987 5.180830e-02 -27.1772 4594.5127)" class="st81" cx="2405.9" cy="2311.6" rx="213.5" ry="122.2"/>
			
				<ellipse transform="matrix(5.180830e-02 -0.9987 0.9987 5.180830e-02 -26.8299 4594.8042)" class="st82" cx="2406.3" cy="2311.5" rx="213.5" ry="122.2"/>
			
				<ellipse transform="matrix(5.180830e-02 -0.9987 0.9987 5.180830e-02 -26.4826 4595.0957)" class="st83" cx="2406.6" cy="2311.5" rx="213.5" ry="122.2"/>
			
				<ellipse transform="matrix(5.180830e-02 -0.9987 0.9987 5.180830e-02 -26.1354 4595.3877)" class="st84" cx="2406.9" cy="2311.5" rx="213.5" ry="122.2"/>
			
				<ellipse transform="matrix(5.180830e-02 -0.9987 0.9987 5.180830e-02 -25.7881 4595.6792)" class="st85" cx="2407.2" cy="2311.4" rx="213.5" ry="122.2"/>
			
				<ellipse transform="matrix(5.180830e-02 -0.9987 0.9987 5.180830e-02 -25.4408 4595.9707)" class="st86" cx="2407.6" cy="2311.4" rx="213.5" ry="122.2"/>
			
				<ellipse transform="matrix(5.180830e-02 -0.9987 0.9987 5.180830e-02 -25.0936 4596.2622)" class="st87" cx="2407.9" cy="2311.3" rx="213.5" ry="122.2"/>
			
				<ellipse transform="matrix(5.180830e-02 -0.9987 0.9987 5.180830e-02 -24.7463 4596.5542)" class="st88" cx="2408.2" cy="2311.3" rx="213.5" ry="122.2"/>
			
				<ellipse transform="matrix(5.180830e-02 -0.9987 0.9987 5.180830e-02 -24.399 4596.8457)" class="st89" cx="2408.6" cy="2311.3" rx="213.5" ry="122.2"/>
			
				<ellipse transform="matrix(5.180830e-02 -0.9987 0.9987 5.180830e-02 -24.0518 4597.1372)" class="st90" cx="2408.9" cy="2311.2" rx="213.5" ry="122.2"/>
			
				<ellipse transform="matrix(5.180830e-02 -0.9987 0.9987 5.180830e-02 -23.7045 4597.4287)" class="st91" cx="2409.2" cy="2311.2" rx="213.5" ry="122.2"/>
			
				<ellipse transform="matrix(5.180830e-02 -0.9987 0.9987 5.180830e-02 -23.3572 4597.7202)" class="st92" cx="2409.5" cy="2311.2" rx="213.5" ry="122.2"/>
			
				<ellipse transform="matrix(5.180830e-02 -0.9987 0.9987 5.180830e-02 -23.01 4598.0122)" class="st93" cx="2409.9" cy="2311.1" rx="213.5" ry="122.2"/>
			
				<ellipse transform="matrix(5.180830e-02 -0.9987 0.9987 5.180830e-02 -22.6627 4598.3037)" class="st94" cx="2410.2" cy="2311.1" rx="213.5" ry="122.2"/>
			
				<ellipse transform="matrix(5.180830e-02 -0.9987 0.9987 5.180830e-02 -22.3155 4598.5952)" class="st95" cx="2410.5" cy="2311" rx="213.5" ry="122.2"/>
			
				<ellipse transform="matrix(5.180830e-02 -0.9987 0.9987 5.180830e-02 -21.9682 4598.8867)" class="st96" cx="2410.8" cy="2311" rx="213.5" ry="122.2"/>
			
				<ellipse transform="matrix(5.180830e-02 -0.9987 0.9987 5.180830e-02 -21.6209 4599.1787)" class="st97" cx="2411.2" cy="2311" rx="213.5" ry="122.2"/>
			
				<ellipse transform="matrix(5.180830e-02 -0.9987 0.9987 5.180830e-02 -21.2737 4599.4702)" class="st98" cx="2411.5" cy="2310.9" rx="213.5" ry="122.2"/>
			
				<ellipse transform="matrix(5.180830e-02 -0.9987 0.9987 5.180830e-02 -20.9264 4599.7617)" class="st99" cx="2411.8" cy="2310.9" rx="213.5" ry="122.2"/>
			
				<ellipse transform="matrix(5.180830e-02 -0.9987 0.9987 5.180830e-02 -20.5791 4600.0532)" class="st100" cx="2412.2" cy="2310.9" rx="213.5" ry="122.2"/>
			
				<ellipse transform="matrix(5.180830e-02 -0.9987 0.9987 5.180830e-02 -20.2319 4600.3452)" class="st101" cx="2412.5" cy="2310.8" rx="213.5" ry="122.2"/>
			
				<ellipse transform="matrix(5.180830e-02 -0.9987 0.9987 5.180830e-02 -19.8846 4600.6367)" class="st102" cx="2412.8" cy="2310.8" rx="213.5" ry="122.2"/>
			
				<ellipse transform="matrix(5.180830e-02 -0.9987 0.9987 5.180830e-02 -19.5373 4600.9282)" class="st103" cx="2413.1" cy="2310.8" rx="213.5" ry="122.2"/>
			
				<ellipse transform="matrix(5.180830e-02 -0.9987 0.9987 5.180830e-02 -19.1901 4601.2197)" class="st104" cx="2413.5" cy="2310.7" rx="213.5" ry="122.2"/>
			
				<ellipse transform="matrix(5.180830e-02 -0.9987 0.9987 5.180830e-02 -18.8428 4601.5117)" class="st105" cx="2413.8" cy="2310.7" rx="213.5" ry="122.2"/>
			
				<ellipse transform="matrix(5.180830e-02 -0.9987 0.9987 5.180830e-02 -18.4955 4601.8032)" class="st106" cx="2414.1" cy="2310.6" rx="213.5" ry="122.2"/>
			
				<ellipse transform="matrix(5.180830e-02 -0.9987 0.9987 5.180830e-02 -18.1483 4602.0947)" class="st107" cx="2414.4" cy="2310.6" rx="213.5" ry="122.2"/>
			
				<ellipse transform="matrix(5.180830e-02 -0.9987 0.9987 5.180830e-02 -17.801 4602.3862)" class="st108" cx="2414.8" cy="2310.6" rx="213.5" ry="122.2"/>
			
				<ellipse transform="matrix(5.180830e-02 -0.9987 0.9987 5.180830e-02 -17.4537 4602.6777)" class="st109" cx="2415.1" cy="2310.5" rx="213.5" ry="122.2"/>
			
				<ellipse transform="matrix(5.180830e-02 -0.9987 0.9987 5.180830e-02 -17.1065 4602.9697)" class="st110" cx="2415.4" cy="2310.5" rx="213.5" ry="122.2"/>
			
				<ellipse transform="matrix(5.180830e-02 -0.9987 0.9987 5.180830e-02 -16.7592 4603.2612)" class="st111" cx="2415.8" cy="2310.5" rx="213.5" ry="122.2"/>
			
				<ellipse transform="matrix(5.180830e-02 -0.9987 0.9987 5.180830e-02 -16.4119 4603.5527)" class="st112" cx="2416.1" cy="2310.4" rx="213.5" ry="122.2"/>
			
				<ellipse transform="matrix(5.180830e-02 -0.9987 0.9987 5.180830e-02 -16.0647 4603.8442)" class="st113" cx="2416.4" cy="2310.4" rx="213.5" ry="122.2"/>
			
				<ellipse transform="matrix(5.180830e-02 -0.9987 0.9987 5.180830e-02 -15.7174 4604.1362)" class="st114" cx="2416.7" cy="2310.3" rx="213.5" ry="122.2"/>
			
				<ellipse transform="matrix(5.180830e-02 -0.9987 0.9987 5.180830e-02 -15.3701 4604.4277)" class="st115" cx="2417.1" cy="2310.3" rx="213.5" ry="122.2"/>
			
				<ellipse transform="matrix(5.180830e-02 -0.9987 0.9987 5.180830e-02 -15.0229 4604.7192)" class="st116" cx="2417.4" cy="2310.3" rx="213.5" ry="122.2"/>
			
				<ellipse transform="matrix(5.180830e-02 -0.9987 0.9987 5.180830e-02 -14.6756 4605.0107)" class="st117" cx="2417.7" cy="2310.2" rx="213.5" ry="122.2"/>
			
				<ellipse transform="matrix(5.180830e-02 -0.9987 0.9987 5.180830e-02 -14.3283 4605.3027)" class="st118" cx="2418" cy="2310.2" rx="213.5" ry="122.2"/>
			
				<ellipse transform="matrix(5.180830e-02 -0.9987 0.9987 5.180830e-02 -13.9811 4605.5942)" class="st119" cx="2418.4" cy="2310.2" rx="213.5" ry="122.2"/>
			
				<ellipse transform="matrix(5.180830e-02 -0.9987 0.9987 5.180830e-02 -13.6338 4605.8857)" class="st120" cx="2418.7" cy="2310.1" rx="213.5" ry="122.2"/>
			
				<ellipse transform="matrix(5.180830e-02 -0.9987 0.9987 5.180830e-02 -13.2865 4606.1772)" class="st121" cx="2419" cy="2310.1" rx="213.5" ry="122.2"/>
			
				<ellipse transform="matrix(5.180830e-02 -0.9987 0.9987 5.180830e-02 -12.9393 4606.4692)" class="st122" cx="2419.3" cy="2310" rx="213.5" ry="122.2"/>
			
				<ellipse transform="matrix(5.180830e-02 -0.9987 0.9987 5.180830e-02 -12.592 4606.7607)" class="st123" cx="2419.7" cy="2310" rx="213.5" ry="122.2"/>
			
				<ellipse transform="matrix(5.180830e-02 -0.9987 0.9987 5.180830e-02 -12.2448 4607.0522)" class="st124" cx="2420" cy="2310" rx="213.5" ry="122.2"/>
			
				<ellipse transform="matrix(5.180830e-02 -0.9987 0.9987 5.180830e-02 -11.8975 4607.3438)" class="st125" cx="2420.3" cy="2309.9" rx="213.5" ry="122.2"/>
			
				<ellipse transform="matrix(5.180830e-02 -0.9987 0.9987 5.180830e-02 -11.5502 4607.6353)" class="st126" cx="2420.7" cy="2309.9" rx="213.5" ry="122.2"/>
			
				<ellipse transform="matrix(5.180830e-02 -0.9987 0.9987 5.180830e-02 -11.203 4607.9272)" class="st127" cx="2421" cy="2309.9" rx="213.5" ry="122.2"/>
			
				<ellipse transform="matrix(5.180830e-02 -0.9987 0.9987 5.180830e-02 -10.8557 4608.2188)" class="st128" cx="2421.3" cy="2309.8" rx="213.5" ry="122.2"/>
			
				<ellipse transform="matrix(5.180830e-02 -0.9987 0.9987 5.180830e-02 -10.5084 4608.5103)" class="st129" cx="2421.6" cy="2309.8" rx="213.5" ry="122.2"/>
			
				<ellipse transform="matrix(5.180830e-02 -0.9987 0.9987 5.180830e-02 -10.1612 4608.8018)" class="st130" cx="2422" cy="2309.8" rx="213.5" ry="122.2"/>
			
				<ellipse transform="matrix(5.180830e-02 -0.9987 0.9987 5.180830e-02 -9.8139 4609.0938)" class="st131" cx="2422.3" cy="2309.7" rx="213.5" ry="122.2"/>
			
				<ellipse transform="matrix(5.180830e-02 -0.9987 0.9987 5.180830e-02 -9.4666 4609.3853)" class="st132" cx="2422.6" cy="2309.7" rx="213.5" ry="122.2"/>
			
				<ellipse transform="matrix(5.180830e-02 -0.9987 0.9987 5.180830e-02 -9.1194 4609.6768)" class="st133" cx="2422.9" cy="2309.6" rx="213.5" ry="122.2"/>
			
				<ellipse transform="matrix(5.180830e-02 -0.9987 0.9987 5.180830e-02 -9.1194 4609.6768)" class="st133" cx="2422.9" cy="2309.6" rx="177.3" ry="101.5"/>
			<path class="st134" d="M2524.3,2283.6c4.9,96.7-36.5,186.8-92.5,201.2c-4.5,1.2-9,1.8-13.4,1.9c1.2-0.2,2.4-0.5,3.6-0.8
				c56-14.4,97.4-104.5,92.5-201.2c-4.5-88.9-46.5-152.5-96.8-151C2472.2,2123,2519.5,2188.9,2524.3,2283.6z"/>
			
				<ellipse transform="matrix(5.180830e-02 -0.9987 0.9987 5.180830e-02 -26.0486 4595.4604)" class="st133" cx="2407" cy="2311.4" rx="168.3" ry="96.3"/>
		</g>
		<g>
			<g>
				<g>
					<path class="st135" d="M2454.8,2365.3l-8.5-9.5c8.1-46.3,1.3-71.7-3.2-82.2l7-13.2C2456.2,2273.3,2466.2,2305.9,2454.8,2365.3z
						"/>
				</g>
			</g>
			<g>
				<g>
					<path class="st136" d="M2446.3,2355.8l-17.5-19.6c2.2-5.6,3.3-12.3,2.9-19.2c-0.3-5.9-1.6-11.1-3.7-15.3l15-28.1l7-13.2l6.4-12
						l-4-5.6c-0.3-0.5-8.7-11.9-21.4-17.4c-4.1-1.8-8.9-3.1-14.3-2.9c-3.1,0.1-6.5,0.6-9.9,1.9c-2.5,0.9-5.1,2.1-7.7,3.8l-0.8-16.2
						c-0.2-4.7-2.7-8-5.4-7.3c-2.7,0.7-4.7,5.1-4.5,9.8l1.1,21.6c-2.4,2.4-4.8,5.2-7.2,8.5c-18.7,25.1-23.5,56.3-24.2,78
						c-0.8,23.3,2.8,40.6,2.9,41.3l0.1,0.5c0.6,2.2,14.1,54.3,47.8,57.2l0.5,0l50.7-13l-2-39.6l-3.4-3.8L2446.3,2355.8z
						 M2449.4,2394.1l-39.8,10.2c-26.8-2.7-38.2-43.4-39.3-47.4c-1-4.9-11-60.2,17.8-99c0.8-1.1,1.6-2.1,2.4-3.1l1.5,30.4
						c0.2,4.7,2.6,8,5.4,7.3c2.7-0.7,4.8-5.1,4.5-9.8l-1.9-37.1c3.6-2.6,7.1-4.2,10.4-5.1c1.4-0.4,2.7-0.6,4.1-0.8
						c6-0.6,11.4,1,16.1,3.4c4.6,2.4,8.4,5.7,11.1,8.4l-1.5,2.9l0,0.1l-0.6,1.1l-0.1,0.1l-19.9,37.3c-1.8-0.6-3.7-0.7-5.6-0.2
						c-9,2.3-15.8,16.9-15,32.6c0.8,15.6,8.8,26.4,17.8,24.1c1.3-0.3,2.5-0.9,3.6-1.7l25.4,28.6l0.3,0.3l2.5,2.8L2449.4,2394.1z
						 M2421.9,2319.5c0.3,6.2-2.4,12-5.9,12.9c-3.6,0.9-6.8-3.4-7.1-9.6c-0.3-6.2,2.4-12,5.9-12.9S2421.6,2313.2,2421.9,2319.5z"/>
				</g>
			</g>
			<g>
				<g>
					<path class="st137" d="M2416.1,2207.9l0.7,14.7c-3.1,0.1-6.5,0.6-9.9,1.9l-0.7-14c-0.2-4.7,1.8-9.1,4.5-9.8
						C2413.5,2199.9,2415.9,2203.2,2416.1,2207.9z"/>
				</g>
			</g>
		</g>
	</g>
	<g>
		<g>
			<g>
				<path class="st138" d="M3743.3,992.3l214.8,371.4l-21.6,20.2c0,0-24.3,52.4,41.2,152.8c16.5-10.6,38.8-8.3,52.7,6.6
					c15.7,16.7,14.8,43-1.9,58.7c-0.1,0.1-0.2,0.2-0.3,0.2c-0.1,0.1-0.3,0.3-0.4,0.4c-16.7,15-42.5,14-58-2.5
					c-13.6-14.6-14.8-36.3-3.8-52.1c-95.9-72.2-149.4-51.7-149.4-51.7l-15.5,14.6l-359.8-231.1c-91-58.4-125.4-175.7-78.5-273.1
					c11.3-23.4,27-45.2,47.1-64.1c12.5-11.7,26-21.6,40.1-29.8c14.2-8.2,29-14.6,44.3-19.3C3590,864,3693.2,905.7,3743.3,992.3z"/>
				
					<ellipse transform="matrix(0.7297 -0.6838 0.6838 0.7297 54.3086 3072.7473)" class="st139" cx="3913.5" cy="1467.7" rx="173.5" ry="14"/>
				
					<ellipse transform="matrix(0.7297 -0.6838 0.6838 0.7297 45.5344 3091.3188)" class="st139" cx="3932.6" cy="1488.1" rx="173.5" ry="14"/>
				
					<ellipse transform="matrix(0.7297 -0.6838 0.6838 0.7297 36.7601 3109.8904)" class="st139" cx="3951.7" cy="1508.5" rx="173.5" ry="14"/>
			</g>
			<g>
				
					<ellipse transform="matrix(0.7297 -0.6838 0.6838 0.7297 -29.2983 3249.709)" class="st139" cx="4095.5" cy="1661.9" rx="173.5" ry="14"/>
				
					<ellipse transform="matrix(0.7297 -0.6838 0.6838 0.7297 -41.7212 3276.0032)" class="st139" cx="4122.5" cy="1690.8" rx="132.7" ry="11.3"/>
				
					<ellipse transform="matrix(0.7297 -0.6838 0.6838 0.7297 -51.9505 3297.6543)" class="st139" cx="4144.8" cy="1714.5" rx="88.9" ry="7"/>
				
					<ellipse transform="matrix(0.7297 -0.6838 0.6838 0.7297 -61.2746 3317.3899)" class="st139" cx="4165.1" cy="1736.2" rx="45.1" ry="8.4"/>
			</g>
		</g>
		<path class="st138" d="M3481.1,1549.8l165.6-155.1c4.8-4.5,5.1-12.1,0.6-17L3477.9,1197c-4.5-4.8-12.1-5.1-17-0.6l-165.6,155.1
			c-4.8,4.5-5.1,12.1-0.6,17l169.3,180.7C3468.7,1554,3476.3,1554.3,3481.1,1549.8z"/>
	</g>
	<g transform="matrix(0.73042,-0.682998,0.682998,0.73042,-124.704,130.9)">
		
			<rect x="1376" y="2801.3" transform="matrix(-1 2.540795e-06 -2.540795e-06 -1 2910.1323 5866.5771)" class="st140" width="158.1" height="263.9"/>
	</g>
	<g transform="matrix(0.996925,0.0783571,-0.0783571,0.996925,-85.731,10.9525)">
		<path class="st141" d="M3139.3,996.1c0,0,86,83.2,186,0.3c100-82.9,178.5-217.5,110-321.9c-68.5-104.4-97.6-126.6-166-117.9
			c-68.4,8.7-205.7,144.3-205.7,144.3L3139.3,996.1z"/>
		<g transform="matrix(0.92034,-0.391119,0.391119,0.92034,-25.1438,49.4682)">
			<path class="st142" d="M2479.2,1665.4c93.9,0,216.7,98,216.7,234.2c0,136.2-166.6,245.6-317.9,261.2
				c-25.4,2.6-68.9-112.3-68.9-248.6C2309,1776,2385.3,1665.4,2479.2,1665.4z"/>
		</g>
		<g transform="matrix(0.635193,0,0,0.622192,43.7174,36.7669)">
			<path class="st143" d="M4600.8,1613.1c19.5,0.4,31.9,23.7,69.8-18.2c9.2-10.2,36.2-12,22.9,22.2c-13.2,34.3-46.2,52.3-76.3,39.3
				C4590.2,1644.8,4581.8,1612.7,4600.8,1613.1z"/>
		</g>
		<path class="st138" d="M3166.7,964.1c0,0-23-137.1-79.9-226.9c-30.3-47.8-103.6-25-186.4-30.9c0,0-79.3,103.1-35.2,233
			c0,0-106.2-114.6-52-256.1c0,0,82.8-264.2,489.5-142.3c0,0-15.9,163.7-34.6,283.5C3249.4,944.2,3166.7,964.1,3166.7,964.1z"/>
		<path class="st144" d="M3085,725.7c0,0,38.6,118.8-29.2,192.2c0,0,30.6-53.6,23.1-99.9c0,0-19.8,99.2-164.7,120.4
			c0,0-42.1-8.6-44.6,9.7c-2.5,18.2-79.3-139.7-15-243C2918.9,601.8,3085,725.7,3085,725.7z"/>
		<g transform="matrix(1,0,0,1,0.145684,0.295883)">
			<path class="st140" d="M2973.6,959.7c0,0,3.1,32.5-26.4,52.9C2928.2,1025.8,3011.1,1048,2973.6,959.7z"/>
		</g>
		
			<ellipse transform="matrix(1.634497e-03 1 -1 1.634497e-03 3920.6213 -1925.2756)" class="st140" cx="2924.5" cy="1000.9" rx="8.8" ry="20.4"/>
		<g transform="matrix(0.847556,-0.530706,0.530706,0.847556,-30.1026,79.8048)">
			
				<ellipse transform="matrix(-1 8.400577e-04 -8.400577e-04 -1 4266.144 4757.4473)" class="st140" cx="2132.1" cy="2379.6" rx="33.3" ry="17.7"/>
		</g>
		<path class="st141" d="M3161,683.3l-0.5,0.2l-0.4,0.3l-0.3,0.4l-0.3,0.4l-0.2,0.5l-0.1,0.5v0.5l0.1,0.5l0.2,0.5l2.5,4.5l2.4,4.4
			l2.3,4.4l2.3,4.4l2.2,4.4l2.2,4.4l1.1,2.2l1.1,2.2l1,2.2l1,2.2l1,2.2l1,2.2l1,2.2l1,2.2l0.9,2.2l0.9,2.2l0.9,2.2l0.9,2.2l0.9,2.2
			l0.9,2.2l0.8,2.2l0.8,2.2l0.8,2.2l0.8,2.2l0.8,2.2l0.7,2.2l0.7,2.2l0.7,2.2l0.7,2.2l0.7,2.2l0.7,2.2l0.7,2.2l0.6,2.2l0.6,2.2
			l0.6,2.2l0.6,2.2l0.6,2.2l0.5,2.2l0.5,2.2l0.5,2.2l0.5,2.2l0.4,2.2l0.4,2.2l0.4,2.2l0.4,2.2l0.4,2.2l0.4,2.2l0.3,2.2l0.3,2.2
			l0.3,2.2l0.3,2.2l0.3,2.2l0.2,2.2l0.2,2.2l0.2,2.2l0.2,2.2l0.2,2.2l0.1,2.2l0.1,2.2l0.1,2.2l0.1,2.2l0.1,2.2l0,2.1v2.2v2.2l0,2.2
			l-0.1,2.2l-0.1,2.2l-0.1,2.2l-0.1,2.2l-0.1,2.2l-0.2,2.2l-0.2,2.2l-0.2,2.2l-0.2,2.2l-0.3,2.2l-0.3,2.2l-0.3,2.2l-0.3,2.2
			l-0.3,2.2l-0.4,2.2l-0.4,2.2l-0.4,2.2l-0.4,2.2l-0.5,2.2l-0.5,2.2l-0.5,2.2l-0.5,2.2l-0.6,2.2l-0.6,2.2l-0.6,2.2l-0.6,2.2
			l-0.7,2.2l-0.7,2.2l-0.7,2.2l-0.7,2.2l-0.8,2.2l-0.8,2.2l-0.8,2.2l-0.8,2.2l-0.9,2.2l-0.9,2.2l-0.9,2.2l-1,2.2l-1,2.2l-1,2.2
			l-1,2.2l-1.1,2.2l-1.1,2.2l-1.1,2.2l-1.1,2.2l-1.2,2.2l-1.2,2.2l-1.2,2.2l-1.3,2.2l-1.3,2.2l-1.3,2.2l-1.3,2.2l-1.4,2.2l-1.4,2.2
			l-1.4,2.2l-1.5,2.2l-0.2,0.4l-0.1,0.5l0,0.5l0.1,0.5l0.2,0.5l0.2,0.4l0.3,0.4l0.4,0.3l0.4,0.2l0.5,0.1l0.5,0.1l0.5-0.1l0.5-0.1
			l0.4-0.3l0.4-0.3l0.3-0.4l1.5-2.3l1.5-2.3l1.4-2.3l1.4-2.3l1.4-2.3l1.3-2.3l1.3-2.3l1.3-2.3l1.2-2.3l1.2-2.3l1.2-2.3l1.2-2.2
			l1.1-2.3l1.1-2.2l1.1-2.2l1.1-2.3l1-2.2l1-2.2l1-2.2l1-2.2l0.9-2.2l0.9-2.2l0.9-2.2l0.8-2.2l0.8-2.2l0.8-2.2l0.8-2.2l0.7-2.2
			l0.7-2.2l0.7-2.2l0.7-2.2l0.6-2.2l0.6-2.2l0.6-2.2l0.6-2.2l0.5-2.2l0.5-2.2l0.5-2.2l0.4-2.2l0.4-2.2l0.4-2.2l0.4-2.2l0.4-2.2
			l0.3-2.2l0.3-2.2l0.3-2.2l0.3-2.2l0.2-2.2l0.2-2.2l0.2-2.2l0.2-2.2l0.2-2.2l0.1-2.2l0.1-2.2l0.1-2.2l0.1-2.2l0-2.2v-2.2v-2.2
			l0-2.2l-0.1-2.2l-0.1-2.2l-0.1-2.2l-0.1-2.2l-0.1-2.2l-0.2-2.2l-0.2-2.2l-0.2-2.2l-0.2-2.2l-0.3-2.2l-0.3-2.2l-0.3-2.2l-0.3-2.2
			l-0.3-2.2l-0.4-2.2l-0.4-2.2l-0.4-2.2l-0.4-2.2l-0.4-2.2l-0.4-2.2l-0.5-2.2l-0.5-2.2l-0.5-2.2l-0.5-2.2l-0.5-2.2l-0.6-2.2
			l-0.6-2.2l-0.6-2.2l-0.6-2.2l-0.6-2.2l-0.7-2.2l-0.7-2.2l-0.7-2.2l-0.7-2.2l-0.7-2.2l-0.8-2.2l-0.8-2.2l-0.8-2.2l-0.8-2.2
			l-0.8-2.2l-0.8-2.2l-0.9-2.2l-0.9-2.2l-0.9-2.2l-0.9-2.2l-0.9-2.2l-0.9-2.2l-1-2.2l-1-2.2l-1-2.2l-1-2.2l-1-2.2l-1-2.2l-1.1-2.2
			l-1.1-2.2l-1.1-2.2l-2.2-4.5l-2.3-4.5l-2.3-4.5l-2.4-4.5l-2.4-4.5l-2.5-4.5l-0.3-0.4l-0.4-0.3l-0.4-0.3l-0.5-0.2l-0.5-0.1h-0.5
			L3161,683.3z"/>
		<path class="st141" d="M3229.5,644.4l-0.5,0.2l-0.4,0.3l-0.4,0.4l-0.3,0.5l-0.2,0.5l-0.1,0.5l0.1,0.6l0.1,0.5l1.9,4.7l1.8,4.7
			l1.8,4.7l1.7,4.7l1.7,4.6l1.6,4.6l1.6,4.6l1.5,4.6l0.7,2.3l0.7,2.3l0.7,2.3l0.7,2.3l0.7,2.3l0.7,2.3l0.6,2.3l0.6,2.3l0.6,2.3
			l0.6,2.3l0.6,2.3l0.6,2.3l0.6,2.3l0.5,2.3l0.5,2.3l0.5,2.3l0.5,2.3l0.5,2.2l0.5,2.3l0.4,2.2l0.4,2.2l0.4,2.2l0.4,2.3l0.4,2.2
			l0.4,2.2l0.4,2.2l0.3,2.2l0.3,2.2l0.3,2.2l0.3,2.2l0.3,2.2l0.3,2.2l0.3,2.2l0.2,2.2l0.2,2.2l0.2,2.2l0.2,2.2l0.2,2.2l0.2,2.2
			l0.2,2.2l0.1,2.2l0.1,2.2l0.1,2.2l0.1,2.2l0.1,2.2l0.1,2.2l0.1,2.2l0,2.2l0,2.2v2.2l0,2.2l0,2.2l-0.1,2.2l-0.1,2.2l-0.1,2.2
			l-0.1,2.2l-0.1,2.2l-0.1,2.2l-0.1,2.2l-0.2,2.2l-0.2,2.2l-0.2,2.2l-0.2,2.2l-0.2,2.2l-0.2,2.2l-0.2,2.2l-0.3,2.2l-0.3,2.2
			l-0.3,2.2l-0.3,2.2l-0.3,2.2l-0.3,2.2l-0.4,2.2l-0.4,2.3l-0.4,2.2l-0.4,2.2l-0.4,2.3l-0.4,2.3l-0.4,2.2l-0.5,2.3l-0.5,2.3
			l-0.5,2.3l-0.5,2.3l-0.5,2.3l-0.6,2.3l-0.6,2.3l-0.6,2.3l-0.6,2.3l-0.6,2.3l-0.6,2.3l-0.6,2.3l-0.7,2.3l-0.7,2.3l-0.7,2.3
			l-0.7,2.3l-0.7,2.3l-0.7,2.3l-0.8,2.3l-0.8,2.3l-0.8,2.3l-0.8,2.3l-0.8,2.3l-0.8,2.3l-0.8,2.3l-0.9,2.3l-0.9,2.3l-0.9,2.4
			l-0.9,2.4l-1,2.4l-1,2.4l-1,2.4l-1,2.4l-0.2,0.5l0,0.5l0.1,0.5l0.2,0.5l0.3,0.5l0.4,0.4l0.4,0.3l0.5,0.2l0.5,0.1l0.6,0l0.5-0.1
			l0.5-0.2l0.4-0.3l0.3-0.4l0.3-0.5l1-2.4l1-2.4l1-2.4l1-2.4l0.9-2.4l0.9-2.4l0.9-2.4l0.9-2.4l0.9-2.4l0.9-2.4l0.8-2.4l0.8-2.4
			l0.8-2.4l0.8-2.4l0.8-2.3l0.7-2.3l0.7-2.4l0.7-2.3l0.7-2.3l0.7-2.3l0.7-2.3l0.7-2.3l0.6-2.3l0.6-2.3l0.6-2.3l0.6-2.3l0.6-2.3
			l0.6-2.3l0.5-2.3l0.5-2.3l0.5-2.3l0.5-2.3l0.5-2.3l0.4-2.3l0.4-2.3l0.4-2.3l0.4-2.3l0.4-2.3l0.4-2.3l0.4-2.3l0.3-2.3l0.3-2.3
			l0.3-2.3l0.3-2.3l0.3-2.3l0.3-2.3l0.3-2.3l0.2-2.3l0.2-2.3l0.2-2.3l0.2-2.3l0.2-2.3l0.2-2.3l0.2-2.3l0.1-2.3l0.1-2.3l0.1-2.3
			l0.1-2.3l0.1-2.3l0.1-2.3l0-2.3l0-2.3v-2.3l0-2.3l0-2.3l-0.1-2.3l-0.1-2.3l-0.1-2.3l-0.1-2.3l-0.1-2.3l-0.1-2.3l-0.1-2.3l-0.2-2.3
			l-0.2-2.3l-0.2-2.3l-0.2-2.3l-0.2-2.3l-0.2-2.3l-0.2-2.3l-0.3-2.3l-0.3-2.3l-0.3-2.3l-0.3-2.3l-0.3-2.3l-0.3-2.3l-0.3-2.3
			l-0.4-2.3l-0.4-2.3l-0.4-2.3l-0.4-2.3l-0.4-2.3l-0.4-2.3l-0.4-2.3l-0.5-2.3l-0.5-2.3l-0.5-2.3l-0.5-2.3l-0.5-2.3l-0.5-2.3
			l-0.6-2.3l-0.6-2.3l-0.6-2.3l-0.6-2.3l-0.6-2.3l-0.6-2.3l-0.6-2.3l-0.7-2.3l-0.7-2.3l-0.7-2.3l-0.7-2.3l-0.7-2.3l-0.7-2.3
			l-1.5-4.7l-1.6-4.7l-1.6-4.7l-1.7-4.7l-1.8-4.7l-1.8-4.7l-1.9-4.7l-1.9-4.7l-0.2-0.5l-0.4-0.4l-0.4-0.3l-0.5-0.2l-0.5-0.1l-0.5,0
			L3229.5,644.4z"/>
		<path class="st138" d="M3005.7,757.2l-0.4,0.1l-0.4,0.2l-0.3,0.2l-0.3,0.3l-0.2,0.3l-0.2,0.4l-0.1,0.4l-0.1,0.4l-0.1,1.9l-0.1,1.8
			l-0.1,1.9l-0.2,1.8l-0.2,1.8l-0.2,1.8l-0.2,1.8l-0.2,1.8l-0.2,1.8l-0.3,1.8l-0.3,1.8l-0.3,1.8l-0.3,1.8l-0.3,1.8l-0.4,1.8
			l-0.4,1.8l-0.4,1.8l-0.4,1.8l-0.4,1.8l-0.4,1.8l-0.4,1.7l-0.5,1.8l-0.5,1.7l-0.5,1.7l-0.5,1.7l-0.5,1.7l-0.6,1.7l-0.6,1.7
			l-0.6,1.7l-0.6,1.7l-0.6,1.7l-0.6,1.7l-0.7,1.7l-0.7,1.7l-0.7,1.7l-0.7,1.7l-0.7,1.7l-0.7,1.6l-0.7,1.6l-0.7,1.6l-0.8,1.6
			l-0.8,1.6l-0.8,1.6l-0.8,1.6l-0.8,1.6l-0.8,1.6l-0.9,1.6l-0.9,1.6l-0.9,1.6l-0.9,1.6l-0.9,1.5l-0.9,1.5l-0.9,1.5l-1,1.5l-1,1.5
			l-1,1.5l-1,1.5l-1,1.5l-1,1.5l-1,1.5l-1,1.5l-1.1,1.5l-1.1,1.4l-1.1,1.4l-1.1,1.4l-1.1,1.4l-1.1,1.4l-1.1,1.4l-1.1,1.4l-1.2,1.4
			l-1.2,1.4l-1.2,1.4l-1.2,1.3l-1.2,1.3l-1.2,1.3l-1.2,1.3l-1.2,1.3l-1.2,1.3l-1.2,1.3l-1.3,1.3l-1.3,1.3l-1.3,1.3l-1.3,1.2
			l-1.3,1.2l-1.3,1.2l-1.3,1.2l-1.3,1.2l-1.3,1.2l-1.4,1.2l-1.4,1.2l-1.4,1.2l-1.4,1.2l-1.4,1.2l-1.4,1.1l-1.4,1.1l-1.4,1.1
			l-1.4,1.1l-1.5,1.1l-1.5,1.1l-1.5,1.1l-1.5,1.1l-1.5,1.1l-1.5,1l-1.5,1l-1.5,1l-1.5,1l-1.5,1l-1.6,1l-1.5,1l-1.6,1l-1.6,1
			l-1.6,0.9l-1.6,0.9l-1.6,0.9l-1.6,0.9l-1.6,0.9l-1.6,0.9l-1.6,0.8l-1.6,0.8l-1.6,0.8l-1.6,0.8l-1.7,0.8l-1.7,0.8l-1.7,0.8
			l-1.7,0.8l-1.7,0.8l-1.7,0.7l-1.7,0.7l-0.4,0.2l-0.3,0.2l-0.3,0.3l-0.2,0.3l-0.2,0.4l-0.1,0.4l-0.1,0.4v0.4l0.1,0.4l0.1,0.4
			l0.2,0.4l0.2,0.3l0.3,0.3l0.3,0.2l0.4,0.2l0.4,0.1l0.4,0.1l0.4,0l0.4-0.1l0.4-0.1l1.7-0.7l1.7-0.8l1.7-0.8l1.7-0.8l1.7-0.8
			l1.7-0.8l1.7-0.8l1.7-0.8l1.7-0.8l1.7-0.9l1.6-0.9l1.7-0.9l1.6-0.9l1.6-0.9l1.6-0.9l1.6-1l1.6-1l1.6-1l1.6-1l1.6-1l1.6-1l1.6-1
			l1.6-1l1.5-1l1.5-1l1.5-1.1l1.5-1.1l1.5-1.1l1.5-1.1l1.5-1.1l1.5-1.1l1.5-1.1l1.5-1.1l1.5-1.2l1.4-1.2l1.5-1.2l1.4-1.2l1.4-1.2
			l1.4-1.2l1.4-1.2l1.4-1.2l1.4-1.2l1.4-1.3l1.4-1.3l1.3-1.3l1.3-1.3l1.3-1.3l1.3-1.3l1.3-1.3l1.3-1.3l1.3-1.3l1.3-1.3l1.3-1.3
			l1.2-1.4l1.2-1.4l1.2-1.4l1.2-1.4l1.2-1.4l1.2-1.4l1.2-1.4l1.2-1.4l1.1-1.4l1.1-1.5l1.1-1.5l1.1-1.5l1.1-1.5l1.1-1.5l1.1-1.5
			l1.1-1.5l1-1.5l1-1.5l1-1.5l1-1.6l1-1.5l1-1.6l1-1.6l1-1.6l0.9-1.6l0.9-1.6l0.9-1.6l0.9-1.6l0.9-1.6l0.9-1.6l0.8-1.6l0.8-1.6
			l0.8-1.7l0.8-1.6l0.8-1.7l0.8-1.7l0.8-1.7l0.7-1.7l0.7-1.7l0.7-1.7l0.7-1.7l0.7-1.7l0.7-1.7l0.7-1.7l0.6-1.7l0.6-1.7l0.6-1.8
			l0.6-1.7l0.6-1.8l0.6-1.8l0.5-1.8l0.5-1.8l0.5-1.8l0.5-1.8l0.5-1.8l0.4-1.8l0.4-1.8l0.4-1.8l0.4-1.8l0.4-1.8l0.4-1.8l0.3-1.8
			l0.3-1.8l0.3-1.9l0.3-1.9l0.3-1.9l0.3-1.9l0.2-1.9l0.2-1.9l0.2-1.9l0.2-1.9l0.2-1.9l0.1-1.9l0.1-1.9l0.1-1.9l0-0.4l-0.1-0.4
			l-0.1-0.4l-0.2-0.4l-0.2-0.3l-0.3-0.3l-0.3-0.2l-0.4-0.2l-0.4-0.1l-0.4-0.1h-0.4L3005.7,757.2z"/>
	</g>
	<g transform="matrix(0.565761,-0.824569,0.824569,0.565761,-152.704,193.522)">
		<path class="st141" d="M154.9,5294.6c0,0-97.9,135.1-196.1,173.6c-98.2,38.5,63.2,38.5,157.9,10.1c94.7-28.4,207.2-15.8,177-80.2
			s-74.7-132-74.7-132L154.9,5294.6z"/>
	</g>
	<g transform="matrix(1,0,0,1,-59.3906,4.45285)">
		<path class="st141" d="M3614,3401.3c0,0-97.9,135.1-196.1,173.6c-98.2,38.5,63.2,38.5,157.9,10.1c94.7-28.4,207.2-15.8,177-80.2
			s-74.7-132-74.7-132L3614,3401.3z"/>
	</g>
	<g transform="matrix(-0.381831,-0.985177,1.05477,-0.466892,95.792,503.523)">
		<path class="st142" d="M-1937.8,1653.3c0,0,119.4-106.4,177.4-171.2c0,0,16.2-11.7-2.2,16c-18.4,27.8-44.2,63.2-44.2,63.2
			s61.1-58.6,79.6-77.6c18.6-19-11.6,39.1-62.7,84c0,0,60.8-53.4,85.3-71.3c14.9-10.9-12,32.3-72.5,83.9c0,0,49.3-37.2,79.4-54.6
			c17.1-9.9,28.9-0.8-69.8,69.2c-10,7.1-20.3,12.2-27.7,24.1c0,0,25.5-12,45.2,1.2c0,0,0.3,8.9-12.8,10c-11.4,1-29.3,5.8-49.8,22.8
			c-20.5,17-52.3,38.1-83.2,46.6C-1926.7,1708-1937.8,1653.3-1937.8,1653.3z"/>
	</g>
	<g transform="matrix(-1.14385,0.331455,0.278322,0.960488,138.354,-22.9415)">
		<path class="st145" d="M-1916.9,2132.6c0,0-31.6-10.5-38.3,18.8c-32.3,141.6-105.6,565.4,24.7,589.2
			c157.2,28.7,400.3-478,400.3-478l-83-94.7l-208.6,262.8c0,0-5.7-62.7-14.2-96.4C-1856.9,2251.1-1916.9,2132.6-1916.9,2132.6z"/>
	</g>
	<g transform="matrix(-1.00635,0,0,0.919666,389.859,-186.295)">
		<path class="st138" d="M-2669.9,1560.7l151.4,151.4c0,0-9.1,138.7-42.8,191.5c-72.8,114.2-150.7,228.5-414.2,271.9l-161.7-276.5
			C-3137.2,1898.9-2698,1652-2669.9,1560.7z"/>
	</g>
	<g transform="matrix(-1,0,0,1,387.592,-212.565)">
		<path class="st142" d="M-3313.4,2756.5c0,0-256.4,2.6-507.5,307l-162.9,148.7l40,98.4l694-302.8L-3313.4,2756.5z"/>
		<g>
			<defs>
				<path id="SVGID_1_" d="M-3313.4,2756.5c0,0-256.4,2.6-507.5,307l-162.9,148.7l40,98.4l694-302.8L-3313.4,2756.5z"/>
			</defs>
			<clipPath id="SVGID_2_">
				<use xlink:href="#SVGID_1_"  style="overflow:visible;"/>
			</clipPath>
			<g class="st146">
				<path class="st147" d="M-2520.8,1512.4l-1355.6,71.6l-224.5,1434.1l341.3,467.3l326.7,132.9l452.2-64l459.9-591.5V1512.4z"/>
			</g>
		</g>
	</g>
	<g transform="matrix(-1,0,0,1,387.592,-212.565)">
		<path class="st142" d="M-2987.6,2015.8l-171.8-243.1c0,0-294.2-78.1-370.8,218.9c-76.6,297,190.9,831.3,190.9,831.3
			s-242.4,210.4,81.6,831.8l102.6-1.3l82.5-1553.7L-2987.6,2015.8z"/>
		<g>
			<defs>
				<path id="SVGID_3_" d="M-2987.6,2015.8l-171.8-243.1c0,0-294.2-78.1-370.8,218.9c-76.6,297,190.9,831.3,190.9,831.3
					s-242.4,210.4,81.6,831.8l102.6-1.3l82.5-1553.7L-2987.6,2015.8z"/>
			</defs>
			<clipPath id="SVGID_4_">
				<use xlink:href="#SVGID_3_"  style="overflow:visible;"/>
			</clipPath>
			<g class="st148">
				<path class="st147" d="M-2503.2,1512.4l-1355.6,71.6l-224.5,1434.1l341.3,467.3l326.7,132.9l452.2-64l459.9-591.5V1512.4z"/>
			</g>
		</g>
	</g>
	<g transform="matrix(-1,0,0,1,387.592,-212.565)">
		<path class="st138" d="M-3179.6,1783l0.9,0.5l0.6,0.8l0.3,1l-0.1,1l-0.5,0.9l-0.8,0.6l-3,1.6l-3,1.6l-3,1.7l-3,1.7l-3,1.7
			l-2.9,1.7l-2.9,1.8l-2.9,1.8l-2.9,1.8l-2.8,1.8l-2.8,1.9l-2.8,1.9l-2.8,1.9l-2.8,1.9l-2.7,2l-2.7,2l-2.7,2l-2.7,2l-2.7,2.1
			l-2.6,2.1l-2.6,2.1l-2.6,2.1l-2.6,2.2l-2.6,2.2l-2.5,2.2l-2.5,2.2l-2.5,2.2l-2.5,2.3l-2.5,2.3l-2.4,2.3l-2.4,2.3l-2.4,2.3
			l-2.3,2.4l-2.4,2.4l-2.3,2.4l-2.3,2.4l-2.3,2.5l-2.3,2.5l-2.2,2.5l-2.2,2.5l-2.2,2.5l-2.2,2.6l-2.2,2.6l-2.1,2.6l-2.1,2.6
			l-2.1,2.6l-2.1,2.6l-2.1,2.7l-2,2.7l-2,2.7l-2,2.7l-2,2.7l-1.9,2.7l-1.9,2.7l-1.9,2.8l-1.9,2.8l-1.8,2.8l-1.8,2.8l-1.8,2.8
			l-1.8,2.9l-1.8,2.9l-1.7,2.9l-1.7,2.9l-1.7,2.9l-1.7,2.9l-1.6,2.9l-1.6,2.9l-1.6,3l-1.6,3l-1.6,3l-1.5,3l-1.5,3l-1.5,3l-1.5,3
			l-1.4,3.1l-1.4,3.1l-1.4,3.1l-1.4,3.1l-1.3,3.1l-1.3,3.1l-1.3,3.1l-1.3,3.1l-1.3,3.1l-1.2,3.1l-1.2,3.2l-1.2,3.2l-1.2,3.2
			l-1.1,3.2l-1.1,3.2l-1.1,3.2l-1.1,3.2l-1.1,3.2l-1,3.2l-1,3.2l-1,3.2l-1,3.2l-0.9,3.2l-0.9,3.3l-0.9,3.3l-0.9,3.3l-0.8,3.3
			l-0.8,3.3l-0.8,3.3l-0.8,3.3l-0.7,3.3l-0.7,3.3l-0.7,3.3l-0.7,3.3l-0.6,3.3l-0.6,3.3l-0.6,3.3l-0.6,3.3l-0.5,3.3l-0.5,3.3
			l-0.5,3.4l-0.5,3.3l-0.4,3.4l-0.4,3.4l-0.4,3.4l-0.4,3.4l-0.3,3.4l-0.3,3.4l-0.3,3.4l-0.3,3.4l-0.2,3.4l-0.2,3.4l-0.2,3.4
			l-0.2,3.4l-0.1,2.6l-0.1,2.6l-0.1,2.6l-0.1,2.6l-0.1,2.6l-0.1,2.6l-0.1,5.2l0,5.2l0,5.2l0.1,5.2l0.1,5.2l0.2,5.1l0.2,5.2l0.3,5.1
			l0.3,5.1l0.4,5.1l0.4,5.1l0.4,5.1l0.5,5.1l0.5,5.1l0.6,5.1l0.6,5.1l0.7,5.1l0.7,5.1l0.7,5.1l0.8,5.1l0.8,5.1l0.8,5.1l0.9,5.1
			l0.9,5.1l1,5.1l1,5.1l1,5.1l1.1,5.1l1.1,5.1l1.1,5l1.2,5.1l1.2,5l1.2,5l1.2,5l1.3,5l1.3,5l1.3,5l1.3,5l1.4,5l1.4,5l1.4,5l1.4,5
			l1.5,5l1.5,5l1.5,5l1.5,5l1.5,5l1.6,5l1.6,5l1.6,5l1.6,5l1.6,5l1.6,5l1.6,5l1.7,5l3.4,10l3.4,10l3.4,10l3.5,10l3.5,10l3.5,10
			l3.5,10l7.1,19.9l7.1,19.9l3.5,10l3.5,10l3.5,10l3.4,10l3.4,10l3.4,10l3.3,10l1.6,5l1.6,5l1.6,5l1.6,5l1.6,5l1.5,5l1.5,5l1.5,5
			l1.5,5l1.5,5l1.5,5l1.4,5l1.4,5l1.4,5l1.4,5l1.3,5l1.3,5l1.3,5l1.3,5l1.2,5l1.2,5l1.2,5l1.1,5l1.1,5l1.1,5l1.1,5l1,5l1,5l1,5.1
			l0.9,5.1l0.9,5.1l0.8,5.1l0.8,5.1l0.8,5.1l0.4,2.7l0.4,2.7l0.3,2.7l0.3,2.7l0.3,2.7l0.3,2.7l0.3,2.7l0.2,2.7l0.2,2.7l0.2,2.7
			l0.2,2.7l0.2,2.6l0.1,2.7l0.1,2.6l0.1,2.6l0.1,2.7l0.1,2.6l0.1,2.6l0,2.6l0,2.6v2.6l0,2.6l0,2.6l0,2.6l-0.1,2.6l-0.1,2.6l-0.1,2.6
			l-0.1,2.6l-0.1,2.6l-0.1,2.6l-0.2,2.6l-0.2,2.6l-0.4,5.2l-0.4,5.2l-0.4,5.2l-0.5,5.2l-0.5,5.2l-0.6,5.2l-0.6,5.2l-0.7,5.2
			l-0.7,5.2l-0.7,5.2l-0.8,5.2l-0.8,5.2l-0.8,5.2l-0.8,5.2l-0.9,5.2l-0.9,5.2l-0.9,5.2l-0.9,5.1l-1.8,10.3l-1.8,10.3l-1.9,10.3
			l-1.8,10.4l-1.8,10.3l-0.9,5.2l-0.9,5.2l-0.9,5.2l-0.8,5.2l-0.8,5.2l-0.8,5.2l-0.8,5.2l-0.7,5.2l-0.7,5.2l-0.7,5.2l-0.7,5.2
			l-0.6,5.2l-0.6,5.2l-0.6,5.3l-0.5,5.3l-0.5,5.3l-0.4,5.3l-0.2,2.6l-0.2,2.6l-0.2,2.7l-0.1,2.6l-0.1,2.6l-0.1,2.7l-0.2,3.7
			l-0.1,3.7l-0.1,3.7l-0.1,3.7l-0.1,3.7l-0.1,3.7l-0.1,3.7l-0.1,3.7l0,3.7l0,3.7l0,7.4l0,7.4l0.1,7.3l0.1,7.3l0.2,7.3l0.2,7.3
			l0.3,7.3l0.3,7.3l0.4,7.3l0.4,7.3l0.4,7.3l0.5,7.3l0.5,7.3l0.6,7.3l0.6,7.3l0.6,7.3l0.7,7.3l0.7,7.3l0.8,7.3l0.8,7.3l0.8,7.3
			l0.8,7.3l0.9,7.3l0.9,7.3l1,7.3l1,7.3l1,7.3l1,7.3l1.1,7.3l1.1,7.3l1.1,7.3l1.1,7.3l1.2,7.3l1.2,7.3l1.2,7.2l1.2,7.3l1.3,7.2
			l1.3,7.2l1.3,7.2l1.3,7.2l1.3,7.2l1.3,7.2l1.4,7.2l1.4,7.2l1.4,7.2l2.8,14.5l2.9,14.4l2.9,14.4l2.9,14.4l3,14.4l3,14.4l3,14.4l0,1
			l-0.4,0.9l-0.7,0.7l-0.9,0.4l-1,0l-0.9-0.4l-0.7-0.7l-0.4-0.9l-3-14.4l-3-14.4l-3-14.4l-2.9-14.5l-2.9-14.4l-2.9-14.5l-2.8-14.5
			l-1.4-7.2l-1.4-7.2l-1.4-7.2l-1.3-7.3l-1.3-7.2l-1.3-7.3l-1.3-7.2l-1.3-7.3l-1.2-7.3l-1.2-7.3l-1.2-7.3l-1.2-7.3l-1.2-7.3
			l-1.1-7.3l-1.1-7.3l-1.1-7.3l-1.1-7.3l-1-7.3l-1-7.3l-1-7.3l-1-7.3l-0.9-7.3l-0.9-7.3l-0.8-7.3l-0.8-7.3l-0.8-7.3l-0.7-7.3
			l-0.7-7.3l-0.7-7.3l-0.7-7.3l-0.6-7.3l-0.6-7.3l-0.5-7.3l-0.5-7.3l-0.4-7.3l-0.4-7.4l-0.3-7.3l-0.3-7.4l-0.3-7.4l-0.2-7.4
			l-0.2-7.4l-0.1-7.4l-0.1-7.4l0-7.4l0-7.4l0-3.7l0-3.7l0.1-3.7l0.1-3.7l0.1-3.7l0.1-3.7l0.1-3.7l0.1-3.7l0.1-3.7l0.1-3.7l0.1-2.7
			l0.1-2.7l0.2-2.7l0.2-2.7l0.2-2.7l0.2-2.7l0.4-5.3l0.5-5.3l0.5-5.3l0.5-5.3l0.6-5.3l0.6-5.3l0.7-5.3l0.7-5.3l0.7-5.2l0.8-5.3
			l0.8-5.2l0.8-5.2l0.8-5.2l0.8-5.2l0.9-5.2l0.9-5.2l0.9-5.2l1.8-10.4l1.9-10.4l1.9-10.3l1.9-10.3l1.8-10.3l0.9-5.1l0.9-5.1l0.9-5.1
			l0.9-5.1l0.8-5.1l0.8-5.1l0.8-5.1l0.7-5.1l0.7-5.1l0.7-5.1l0.7-5.1l0.6-5.1l0.6-5.1l0.6-5.2l0.5-5.1l0.4-5.2l0.4-5.2l0.3-5.2
			l0.2-2.6l0.1-2.6l0.1-2.6l0.1-2.6l0.1-2.6l0.1-2.6l0.1-2.6l0.1-2.6l0-2.6l0-2.6l0-2.6v-2.6l0-2.6l0-2.6l-0.1-2.6l-0.1-2.6
			l-0.1-2.6l-0.1-2.6l-0.1-2.6l-0.2-2.6l-0.2-2.6l-0.2-2.6l-0.2-2.6l-0.2-2.6l-0.2-2.6l-0.3-2.6l-0.3-2.6l-0.3-2.6l-0.3-2.6
			l-0.3-2.6l-0.4-2.6l-0.4-2.6l-0.8-5l-0.8-5l-0.8-5l-0.9-5l-0.9-5l-1-5l-1-5l-1-5l-1.1-5l-1.1-5l-1.1-5l-1.1-5l-1.2-5l-1.2-5
			l-1.2-5l-1.3-5l-1.3-5l-1.3-5l-1.3-5l-1.3-5l-1.4-5l-1.4-5l-1.4-5l-1.4-5l-1.5-5l-1.5-5l-1.5-5l-1.5-5l-1.6-5l-1.6-5l-1.6-5
			l-1.6-5l-1.6-5l-1.6-5l-3.3-10l-3.3-10l-3.4-10l-3.4-10l-3.5-10l-3.5-9.9l-3.5-10l-7.1-19.9l-7.1-19.9l-3.5-10l-3.5-10l-3.5-10
			l-3.5-10l-3.4-10l-3.4-10l-3.4-10l-1.7-5l-1.6-5l-1.6-5l-1.6-5l-1.6-5l-1.6-5l-1.6-5l-1.6-5l-1.5-5l-1.5-5l-1.5-5l-1.5-5l-1.5-5
			l-1.4-5l-1.4-5l-1.4-5l-1.4-5l-1.3-5.1l-1.3-5.1l-1.3-5.1l-1.3-5.1l-1.2-5.1l-1.2-5.1l-1.2-5.1l-1.2-5.1l-1.1-5.1l-1.1-5.1
			l-1.1-5.1l-1-5.1l-1-5.1l-1-5.1l-0.9-5.1l-0.9-5.1l-0.8-5.1l-0.8-5.1l-0.8-5.1l-0.8-5.1l-0.7-5.1l-0.7-5.1l-0.6-5.1l-0.6-5.1
			l-0.6-5.2l-0.5-5.2l-0.4-5.2l-0.4-5.2l-0.4-5.2l-0.3-5.2l-0.3-5.2l-0.2-5.2l-0.2-5.2l-0.1-5.2l-0.1-5.2l0-5.2l0-5.2l0.1-5.2
			l0.1-2.6l0.1-2.6l0.1-2.6l0.1-2.6l0.1-2.6l0.1-2.6l0.2-3.4l0.2-3.4l0.2-3.4l0.2-3.4l0.3-3.4l0.3-3.4l0.3-3.4l0.3-3.4l0.4-3.4
			l0.4-3.4l0.4-3.4l0.4-3.4l0.5-3.4l0.5-3.4l0.5-3.4l0.5-3.4l0.6-3.4l0.6-3.4l0.6-3.4l0.7-3.4l0.7-3.4l0.7-3.4l0.7-3.3l0.7-3.4
			l0.8-3.3l0.8-3.3l0.8-3.3l0.8-3.3l0.9-3.3l0.9-3.3l0.9-3.3l1-3.3l1-3.3l1-3.3l1-3.3l1-3.3l1.1-3.2l1.1-3.2l1.1-3.2l1.1-3.2
			l1.2-3.2l1.2-3.2l1.2-3.2l1.2-3.2l1.2-3.2l1.3-3.2l1.3-3.2l1.3-3.1l1.3-3.1l1.4-3.1l1.4-3.1l1.4-3.1l1.4-3.1l1.5-3.1l1.5-3.1
			l1.5-3.1l1.5-3l1.5-3l1.6-3l1.6-3l1.6-3l1.6-3l1.7-3l1.7-3l1.7-2.9l1.7-2.9l1.8-2.9l1.8-2.9l1.8-2.9l1.8-2.9l1.8-2.9l1.9-2.8
			l1.9-2.8l1.9-2.8l1.9-2.8l2-2.8l2-2.7l2-2.7l2-2.7l2.1-2.7l2.1-2.7l2.1-2.7l2.1-2.7l2.1-2.6l2.2-2.6l2.2-2.6l2.2-2.6l2.2-2.6
			l2.2-2.5l2.3-2.5l2.3-2.5l2.3-2.5l2.3-2.5l2.3-2.4l2.4-2.4l2.4-2.4l2.4-2.4l2.4-2.4l2.5-2.3l2.5-2.3l2.5-2.3l2.5-2.3l2.5-2.3
			l2.6-2.2l2.6-2.2l2.6-2.2l2.6-2.2l2.7-2.1l2.7-2.1l2.7-2.1l2.7-2.1l2.7-2l2.8-2l2.8-2l2.8-2l2.8-2l2.8-1.9l2.9-1.9l2.9-1.9
			l2.9-1.8l2.9-1.8l2.9-1.8l3-1.8l3-1.7l3-1.7l3-1.7l3-1.7l3.1-1.6l1-0.3L-3179.6,1783z"/>
	</g>
	<g transform="matrix(-1,0,0,1,387.592,-212.565)">
		<path class="st138" d="M-3142.6,1864.8l0.4,0.1l0.4,0.2l0.3,0.2l0.3,0.3l0.2,0.3l0.2,0.3l0.2,0.3l0.1,0.4l0.1,0.4l0,0.4l-0.1,0.4
			l-0.1,0.4l-0.2,0.3l-0.2,0.3l-1,1.2l-1,1.2l-1,1.2l-1.1,1.1l-1,1.1l-1.1,1.1l-1.1,1.1l-1.1,1.1l-1.1,1.1l-1.1,1.1l-1.1,1l-1.1,1
			l-1.1,1l-1.1,1l-1.1,1l-1.1,1l-1.1,0.9l-1.1,0.9l-1.1,0.9l-1.1,0.9l-1.1,0.9l-1.1,0.9l-1.2,0.9l-1.1,0.8l-1.2,0.8l-1.2,0.8
			l-1.2,0.8l-1.2,0.8l-1.2,0.7l-1.2,0.7l-1.2,0.7l-1.2,0.7l-1.2,0.7l-1.2,0.7l-1.2,0.7l-1.2,0.6l-1.2,0.6l-1.2,0.6l-1.2,0.6
			l-1.2,0.6l-1.2,0.6l-1.2,0.5l-1.2,0.5l-1.2,0.5l-1.2,0.5l-1.2,0.5l-1.2,0.4l-1.2,0.4l-1.2,0.4l-1.2,0.4l-1.3,0.4l-1.2,0.4
			l-1.3,0.3l-1.2,0.3l-1.3,0.3l-1.3,0.3l-1.3,0.3l-1.3,0.2l-1.3,0.2l-1.3,0.2l-1.3,0.2l-1.3,0.2l-1.3,0.2l-1.3,0.1l-1.3,0.1
			l-1.3,0.1l-1.3,0.1l-1.3,0.1l-1.3,0.1l-1.3,0l-1.3,0h-1.3l-1.3,0l-1.3,0l-1.3-0.1l-1.3-0.1l-1.3-0.1l-1.3-0.1l-1.3-0.1l-1.3-0.2
			l-1.3-0.2l-1.3-0.2l-1.3-0.2l-1.3-0.2l-1.3-0.2l-1.3-0.3l-1.3-0.3l-1.3-0.3l-1.3-0.3l-1.3-0.4l-1.3-0.4l-1.3-0.4l-1.3-0.4
			l-1.3-0.4l-1.3-0.4l-1.3-0.5l-1.3-0.5l-1.3-0.5l-1.3-0.5l-1.2-0.5l-1.2-0.6l-1.3-0.6l-1.2-0.6l-1.2-0.6l-1.2-0.6l-1.2-0.7
			l-1.2-0.7l-1.2-0.7l-1.2-0.7l-1.2-0.8l-1.2-0.8l-1.2-0.8l-1.2-0.8l-1.2-0.8l-1.2-0.8l-1.2-0.9l-1.2-0.9l-1.2-0.9l-1.2-0.9l-1.2-1
			l-1.2-1l-1.2-1l-1.2-1l-1.2-1l-1.2-1.1l-1.2-1.1l-1.2-1.1l-1.1-1.1l-0.2-0.3l-0.2-0.3l-0.2-0.3l-0.1-0.4l-0.1-0.4l0-0.4l0.1-0.4
			l0.1-0.4l0.2-0.3l0.2-0.3l0.3-0.3l0.3-0.2l0.3-0.2l0.4-0.1l0.4-0.1l0.4,0l0.4,0l0.4,0.1l0.3,0.2l0.3,0.2l0.3,0.3l1.1,1.1l1.1,1.1
			l1.1,1l1.1,1l1.1,1l1.1,1l1.1,1l1.1,0.9l1.1,0.9l1.1,0.9l1.1,0.9l1.1,0.9l1.2,0.8l1.2,0.8l1.1,0.8l1.2,0.8l1.2,0.7l1.2,0.7
			l1.2,0.7l1.2,0.7l1.2,0.7l1.2,0.7l1.2,0.6l1.2,0.6l1.2,0.6l1.2,0.6l1.2,0.6l1.2,0.5l1.2,0.5l1.2,0.5l1.2,0.5l1.2,0.4l1.2,0.4
			l1.2,0.4l1.2,0.4l1.2,0.4l1.2,0.4l1.2,0.3l1.2,0.3l1.2,0.3l1.2,0.3l1.2,0.3l1.2,0.3l1.2,0.2l1.2,0.2l1.2,0.2l1.2,0.2l1.2,0.2
			l1.2,0.2l1.2,0.1l1.2,0.1l1.2,0.1l1.2,0.1l1.2,0.1l1.2,0l1.2,0h1.2l1.2,0l1.2,0l1.2,0l1.2-0.1l1.2-0.1l1.2-0.1l1.2-0.1l1.2-0.1
			l1.2-0.2l1.2-0.2l1.2-0.2l1.2-0.2l1.2-0.2l1.2-0.2l1.2-0.3l1.2-0.3l1.2-0.3l1.2-0.3l1.2-0.3l1.2-0.3l1.2-0.4l1.2-0.4l1.2-0.4
			l1.2-0.4l1.2-0.4l1.2-0.4l1.2-0.4l1.2-0.5l1.2-0.5l1.2-0.5l1.2-0.5l1.2-0.5l1.2-0.6l1.2-0.6l1.1-0.6l1.2-0.6l1.1-0.6l1.1-0.6
			l1.1-0.7l1.1-0.7l1.1-0.7l1.1-0.7l1.1-0.7l1.1-0.7l1.1-0.7l1.1-0.8l1.1-0.8l1.1-0.8l1.1-0.8l1.1-0.8l1.1-0.8l1.1-0.9l1.1-0.9
			l1.1-0.9l1.1-0.9l1.1-0.9l1.1-0.9l1.1-1l1.1-1l1.1-1l1.1-1l1-1l1-1l1-1l1-1.1l1-1.1l1-1.1l1-1.1l1-1.1l1-1.1l1-1.2l0.3-0.3
			l0.3-0.2l0.3-0.2l0.4-0.1l0.4-0.1l0.4,0L-3142.6,1864.8z"/>
	</g>
	<g transform="matrix(-1,0,0,1,387.592,-212.565)">
		<path class="st138" d="M-3078.1,1857.5l0.3,0l0.2,0.1l0.2,0.1l0.2,0.1l0.2,0.2l0.2,0.2l0.2,0.2l0.2,0.2l0.1,0.2l0.1,0.2l0.1,0.2
			l0.1,0.3l0.1,0.2l0,0.3v0.3l0,0.3l-0.1,0.3l-0.1,0.2l-0.1,0.2l-0.1,0.2l-0.2,0.2l-0.2,0.2l-0.2,0.2l-9.3,7.8l-4.6,3.9l-4.6,3.9
			l-4.6,3.9l-4.6,3.9l-4.5,4l-2.2,2l-2.2,2l-2.2,2l-2.2,2l-2.2,2l-2.2,2.1l-2.2,2.1l-2.2,2.1l-2.1,2.1l-2.1,2.1l-2.1,2.1l-2.1,2.2
			l-2.1,2.2l-2,2.2l-2,2.2l-2,2.2l-2,2.3l-2,2.3l-0.2,0.2l-0.2,0.2l-0.2,0.1l-0.2,0.1l-0.2,0.1l-0.2,0.1l-0.3,0.1l-0.3,0h-0.3
			l-0.3,0l-0.2-0.1l-0.3-0.1l-0.2-0.1l-0.2-0.1l-0.2-0.1l-0.2-0.2l-0.2-0.2l-0.2-0.2l-0.1-0.2l-0.1-0.2l-0.1-0.2l-0.1-0.3l0-0.3
			l0-0.3l0-0.3l0-0.3l0.1-0.3l0.1-0.2l0.1-0.2l0.1-0.2l0.2-0.2l2-2.3l2-2.3l2.1-2.3l2.1-2.3l2.1-2.2l2.1-2.2l2.1-2.2l2.1-2.2
			l2.1-2.2l2.2-2.1l2.2-2.1l2.2-2.1l2.2-2.1l2.2-2.1l2.2-2.1l2.2-2l2.2-2l2.3-2l4.5-4l4.6-4l4.6-3.9l4.6-3.9l4.6-3.9l9.3-7.8
			l0.2-0.2l0.2-0.1l0.2-0.1l0.2-0.1l0.3-0.1l0.3,0l0.3,0L-3078.1,1857.5z"/>
	</g>
	<g transform="matrix(-1,0,0,1,387.592,-212.565)">
		<path class="st138" d="M-3041.6,1908.1l0.3,0l0.3,0.1l0.3,0.1l0.2,0.1l0.2,0.2l0.2,0.2l0.2,0.2l0.2,0.2l0.2,0.2l0.1,0.2l0.1,0.2
			l0.1,0.3l0.1,0.3l0,0.3v0.3l0,0.3l-0.1,0.3l-0.1,0.3l-0.1,0.2l-0.1,0.2l-0.2,0.2l-0.2,0.2l-0.2,0.2l-0.2,0.2l-2.3,1.4l-2.3,1.5
			l-2.3,1.5l-2.3,1.5l-2.3,1.6l-2.3,1.6l-2.3,1.6l-2.3,1.6l-2.3,1.7l-2.3,1.7l-2.3,1.7l-2.2,1.7l-2.2,1.7l-2.2,1.7l-2.2,1.8
			l-2.2,1.8l-2.2,1.8l-2.2,1.8l-4.4,3.6l-4.4,3.6l-4.3,3.7l-4.3,3.7l-4.3,3.7l-8.4,7.3l-0.2,0.2l-0.2,0.1l-0.2,0.1l-0.3,0.1
			l-0.3,0.1l-0.3,0.1h-0.3l-0.3,0l-0.3-0.1l-0.3-0.1l-0.2-0.1l-0.2-0.1l-0.2-0.2l-0.2-0.2l-0.2-0.2l-0.2-0.2l-0.1-0.2l-0.1-0.2
			l-0.1-0.3l-0.1-0.3l0-0.3l0-0.3l0-0.3l0.1-0.3l0.1-0.3l0.1-0.2l0.1-0.2l0.1-0.2l0.2-0.2l0.2-0.2l8.4-7.3l4.3-3.7l4.3-3.7l4.3-3.7
			l4.4-3.7l4.4-3.7l2.2-1.8l2.2-1.8l2.2-1.8l2.2-1.8l2.3-1.8l2.3-1.7l2.3-1.7l2.3-1.7l2.3-1.7l2.3-1.7l2.3-1.7l2.3-1.6l2.4-1.6
			l2.4-1.6l2.4-1.6l2.4-1.5l2.4-1.5l2.4-1.5l0.2-0.1l0.2-0.1l0.3-0.1l0.3-0.1l0.3,0L-3041.6,1908.1z"/>
	</g>
	<g transform="matrix(-1,0,0,1,387.592,-212.565)">
		<path class="st138" d="M-3021.4,1964.9l0.3,0l0.2,0.1l0.2,0.1l0.2,0.1l0.2,0.1l0.2,0.2l0.2,0.2l0.2,0.2l0.2,0.2l0.1,0.2l0.1,0.2
			l0.1,0.2l0.1,0.3l0,0.2l0,0.3l0,0.3l-0.1,0.2l-0.1,0.2l-0.1,0.2l-0.1,0.2l-0.1,0.2l-0.2,0.2l-0.2,0.2l-0.2,0.2l-0.2,0.1l-8,5.1
			l-8,5.2l-8,5.2l-7.9,5.3l-7.9,5.3l-7.9,5.3l-7.9,5.3l-7.9,5.3l-0.2,0.1l-0.2,0.1l-0.2,0.1l-0.3,0.1l-0.2,0l-0.3,0h-0.2l-0.3-0.1
			l-0.2-0.1l-0.2-0.1l-0.2-0.1l-0.2-0.1l-0.2-0.1l-0.2-0.2l-0.2-0.2l-0.2-0.2l-0.1-0.2l-0.1-0.2l-0.1-0.2l-0.1-0.2l0-0.2l0-0.3
			l0-0.3l0-0.2l0.1-0.3l0.1-0.2l0.1-0.2l0.1-0.2l0.2-0.2l0.2-0.2l0.2-0.2l0.2-0.2l7.9-5.3l7.9-5.3l7.9-5.3l7.9-5.3l8-5.3l8-5.2
			l8-5.2l8-5.1l0.2-0.1l0.2-0.1l0.2-0.1l0.2-0.1l0.3,0h0.2L-3021.4,1964.9z"/>
	</g>
	<g transform="matrix(-1,0,0,1,387.592,-212.565)">
		<path class="st138" d="M-3431.2,2947.1l0.7,0.2l0.6,0.3l0.5,0.5l0.3,0.6l0.2,0.7l0,0.7l-0.2,0.7l-0.3,0.6l-0.5,0.5l-0.6,0.3
			l-4.3,1.7l-4.2,1.7l-4.2,1.7l-4.2,1.8l-4.2,1.8l-4.2,1.8l-4.2,1.9l-4.1,1.9l-4.1,1.9l-4.1,1.9l-4.1,2l-4.1,2l-4.1,2l-4.1,2l-4,2.1
			l-4,2.1l-4,2.1l-4,2.1l-4,2.1l-4,2.2l-4,2.2l-4,2.2l-4,2.2l-4,2.2l-3.9,2.3l-3.9,2.3l-3.9,2.3l-3.9,2.3l-3.9,2.3l-3.9,2.4
			l-3.9,2.4l-3.9,2.4l-3.9,2.4l-3.9,2.4l-3.9,2.4l-3.8,2.5l-3.8,2.5l-3.8,2.5l-3.8,2.5l-3.8,2.5l-3.8,2.5l-3.8,2.5l-7.6,5.1
			l-7.6,5.1l-7.6,5.1l-7.6,5.2l-7.5,5.2l-7.5,5.3l-7.5,5.3l-7.5,5.3l-7.5,5.3l-7.5,5.3l-7.5,5.3l-14.9,10.7l-14.9,10.7l-15,10.7
			l-7.5,5.3l-7.5,5.3l-7.5,5.3l-7.5,5.3l-7.6,5.3l-7.6,5.2l-7.6,5.2l-7.6,5.2l-7.6,5.1l-7.7,5.1l-3.8,2.5l-3.8,2.5l-3.9,2.5
			l-3.9,2.5l-3.9,2.5l-3.9,2.5l-3.9,2.5l-3.9,2.4l-3.9,2.4l-3.9,2.4l-3.9,2.4l-3.9,2.4l-3.9,2.3l-4,2.3l-4,2.3l-4,2.3l-4,2.3l-4,2.3
			l-4,2.2l-4,2.2l-4,2.2l-4,2.2l-4,2.2l-4,2.1l-4.1,2.1l-4.1,2.1l-4.1,2.1l-4.1,2.1l-4.1,2l-4.1,2l-4.1,2l-4.1,2l-0.7,0.2l-0.7,0
			l-0.7-0.1l-0.6-0.3l-0.5-0.4l-0.4-0.6l-0.2-0.7l0-0.7l0.2-0.7l0.3-0.6l0.4-0.5l0.6-0.4l4.1-2l4.1-2l4.1-2l4.1-2l4.1-2l4.1-2.1
			l4.1-2.1l4-2.1l4-2.1l4-2.2l4-2.2l4-2.2l4-2.2l4-2.2l4-2.3l4-2.3l3.9-2.3l3.9-2.3l3.9-2.3l3.9-2.3l3.9-2.4l3.9-2.4l3.9-2.4
			l3.9-2.4l3.9-2.4l3.9-2.4l3.9-2.5l3.9-2.5l3.8-2.5l3.8-2.5l3.8-2.5l3.8-2.5l7.6-5.1l7.6-5.1l7.6-5.1l7.6-5.2l7.5-5.2l7.5-5.3
			l7.5-5.3l7.5-5.3l7.5-5.3l7.5-5.3l14.9-10.7l14.9-10.7l14.9-10.7l7.5-5.4l7.5-5.3l7.5-5.3l7.5-5.3l7.5-5.3l7.5-5.3l7.5-5.2
			l7.6-5.2l7.6-5.2l7.6-5.1l7.6-5.1l3.8-2.5l3.8-2.5l3.8-2.5l3.8-2.5l3.8-2.5l3.9-2.5l3.9-2.5l3.9-2.4l3.9-2.4l3.9-2.4l3.9-2.4
			l3.9-2.4l3.9-2.3l3.9-2.4l3.9-2.3l4-2.3l3.9-2.3l4-2.3l4-2.2l4-2.2l4-2.2l4-2.2l4-2.2l4-2.2l4-2.1l4-2.1l4.1-2.1l4.1-2.1l4.1-2
			l4.1-2l4.1-2l4.1-2l4.1-2l4.2-1.9l4.2-1.9l4.2-1.9l4.2-1.8l4.2-1.8l4.2-1.8l4.2-1.8l4.3-1.7l4.3-1.7l0.7-0.2L-3431.2,2947.1z"/>
	</g>
	<g transform="matrix(1.04791,-0.13509,0.201036,1.13583,-273.365,98.8639)">
		<path class="st142" d="M3911.1,1384.8c0,0,119.4-106.4,177.4-171.2c0,0,16.2-11.7-2.2,16c-18.4,27.8-44.2,63.2-44.2,63.2
			s61.1-58.6,79.6-77.6c18.6-19-11.6,39.1-62.7,84c0,0,60.8-53.4,85.3-71.3c14.9-10.9-12,32.3-72.5,83.9c0,0,49.3-37.2,79.4-54.6
			c17.1-9.9,28.9-0.8-69.8,69.2c-10,7.1-20.3,12.2-27.7,24.1c0,0,25.5-12,45.2,1.2c0,0,0.3,8.9-12.8,10c-11.4,1-29.3,5.8-49.8,22.8
			c-20.5,17-52.3,38.1-83.2,46.6C3922.2,1439.5,3911.1,1384.8,3911.1,1384.8z"/>
	</g>
	<g transform="matrix(-0.147429,1.15027,0.991886,0.127129,-34.5578,-57.9781)">
		<path class="st145" d="M773.4,3247.6c0,0,76.7,493.2,10.4,657.9c-81.5,202.5-230.9,353.2-230.9,353.2l30.1,127
			c0,0,249.3-135.2,350.1-401.1C1033.8,3718.7,969.7,3284.1,773.4,3247.6z"/>
	</g>
	<g>
		<path class="st149" d="M2486.5,2493.7c2.9-3.5,5.4-7.2,7.9-11c6.6-10.1,12.9-20.5,19.6-30.5c2.9-4.3,6-8.7,10-12
			c4.1-3.3,9.3-5.4,14.5-4.7s10,4.9,10.4,10.2c0.3,4.6-2.5,8.7-5.2,12.4c-3.6,4.9-7.1,9.7-10.7,14.6c-4.8,6.6-9.6,13.1-14.8,19.5
			c-10.4,12.9-22.7,25.2-38.5,30.2c-5,1.6-23.8,1.5-17.1-8.4c2.6-3.8,8.5-6,12.2-8.8C2479.1,2501.9,2483,2498,2486.5,2493.7z"/>
	</g>
	<g>
		<path class="st150" d="M2428.7,2486.3c2.3-0.8,4.7-1.7,7-2.8c-4.4,3.4-9.5,5.9-14.3,8.6c-3.6,2-7.1,4.2-10.1,7
			c-2.5,2.4-6.3,5.2-5.5,9.1c0.7,3.6,4.8,7.1,7.9,8.7c3.7,1.8,7.9,2.1,12.1,1.7c0.9-0.1,1.7-0.2,2.5-0.3c-2.2,0.8-4.4,1.5-6.6,2.1
			c-4.7,1.3-9.7,2.1-14.5,0.7c-4.7-1.3-9-5.1-9.5-10c-0.5-4.1,1.7-8,4.5-11C2409.1,2492.8,2419.2,2489.7,2428.7,2486.3z"/>
	</g>
	<path class="st151" d="M2458.7,2545.7c-20.9,11.8-73.4,33.4-108.4,58.4c-88.4,70-219.1,214.4-288.6,255.5
		c-105.7,62.6-161.6-10.1-217.2-89.4c-34.2-48.7-44.6-75.7-103.6-176c-53-90-45-127.8-10.8-172.7c27.1-24.2,54.2-33,84.9-19.7
		c29.6,12.9,74.5,107.7,105.3,169.5c33.7,67.5,78.9,157.4,78.9,157.4s112.6-80.1,312.7-172.9c6-7.3,22.6-31.6,35.9-45.9
		c7.9-8.6,15.9-17.2,24.8-24.8c13.9-12,31.6-18,47.4-27.3c3.3-1.9,6.6-4,10.3-5.1c17-5.4,18.9,14.8,11.2,25.1
		c-0.7,1-1.5,1.9-2.3,2.7c-1,1.1-2.2,2.1-3.4,3c-4.4,3.4-9.5,5.9-14.3,8.6c-3.6,2-7.1,4.2-10.1,7c-2.5,2.4-6.3,5.2-5.5,9.1
		c0.7,3.6,4.8,7.1,7.9,8.7c3.7,1.8,7.9,2.1,12.1,1.7c0.9-0.1,1.7-0.2,2.5-0.3c2.2-0.3,4.5-0.9,6.6-1.4c7.8-1.9,15.4-4.3,23.2-6.4
		c10.7-2.9,20.5-6.9,28.9-14.4c8.5-7.6,15.3-16.9,22.4-25.7c7.7-9.5,17.6-22.8,30.9-23.4c6.1-0.3,9.9,6.5,8.4,11.9
		c-0.8,3-2.8,5.6-4.7,8.1c-12.1,16-24,32.2-38.3,46.4C2492.2,2526.8,2475.1,2536.4,2458.7,2545.7z"/>
	<path class="st152" d="M1916,4664.4c-0.7-2.6-2-4.8-3.5-6.8c-6.7-8.4-19.8-11.3-29-16c-3.1-1.6-6.2-3.1-9.4-4.7
		c-13-6.6-26-13.1-39-19.7l-70.4-38.2l-78-47.6l-117.8,9.4l-16.9,45.3c-5.2,13.3-7.7,23-12.8,36.3c-2.8,7.2-5.7,14.8-6.2,22.4
		c-0.2,1.9-0.1,3.8,0.1,5.8c0.6,5.5,2.8,10.8,5.7,15.5c4.9,7.7,12.1,13.8,20.3,17.6c10.6,4.7,22.4,5.3,34,5.9
		c72.5,3.5,144.9,7.1,217.4,7.1c25.3,0,52.2,2,77.2-2.3C1903.6,4691.6,1921.5,4683.6,1916,4664.4z"/>
	<path class="st153" d="M1804.8,2883.2c-111,0-242.2,6.1-331.1,26.2c-16.1,122-21,163.3,5.3,320.1c38.9,231.2,52.5,324.4,71.9,413.8
		c-47.9,133.2-5.8,530.4,3.9,903.4l182.6,5.8c36.9-264.2,73.8-613.9,81.6-874.2C1821,3610.9,1829,2970,1804.8,2883.2z"/>
	<path class="st151" d="M1481.5,2047.8c33.1,16.9,66.8,32.6,100.8,47.8c10.2,4.6,20.5,9.2,31.5,11.4l2.3,62l2,53.1
		c-2,1.3-4.1,2.4-6.3,3.3c-10,25.5-34.8,43.5-63.9,43.5c-31.2,0-57.6-20.9-65.9-49.4c-0.6-0.2-1.3-0.4-1.9-0.6c0-2.7,0-5.4,0-8
		c-0.5-3.4-0.8-7-0.8-10.6c0-3.4,0.3-6.7,0.7-10c0-4.6,0-9.3-0.1-13.9c-0.1-17.7-0.2-35.4-2-53c-0.6-5.4-1.3-10.8-2.1-16.1
		c-2.1-13.3-4.9-26.5-7.7-39.8c-2.3-10.9-4.6-21.7-6.9-32.6C1467.5,2040.8,1473.6,2043.8,1481.5,2047.8z"/>
	<path class="st154" d="M1682.1,1941.2c-3.5,43.1-22.3,84.9-53.1,115.3c-14.1,13.9-30.6,25.4-49,32.6c-20.2,7.9-42.3,10.3-63.9,9.2
		c-12.8-0.7-25.7-2.6-37.4-7.7c-14.1-6.1-25.8-16.5-36.8-27.2c-18.7-18.4-36-38.5-48.8-61.4c-12.8-22.9-21-48.7-21-74.9
		c0-8.9,1-17.9,4.5-26.1c4.6-10.9,13.1-19.7,21.9-27.7c28.9-26.4,62.9-48,100.7-58.5c39-10.8,80.3-9.4,120.8-7.8
		c10.2,0.4,19.6,2.4,27.8,8.8c6.7,5.3,10.4,14.2,14.1,21.6c10.1,20.6,16.8,43,19.5,65.9C1682.9,1915.8,1683.2,1928.5,1682.1,1941.2z
		"/>
	<path class="st152" d="M1498.4,4678.9c0-2.7-0.6-5.2-1.6-7.4c-4.3-9.9-16.2-16-23.9-22.9c-2.6-2.3-5.2-4.6-7.8-7
		c-10.9-9.7-21.8-19.4-32.6-29.1l-58.2-55l-63.1-66.1l-116.3-21.3l-28,39.4c-8.5,11.5-13.3,20.2-21.7,31.7
		c-4.6,6.3-9.3,12.8-11.8,20.1c-0.6,1.8-1.1,3.7-1.4,5.6c-0.8,5.5-0.1,11.2,1.6,16.5c2.7,8.6,8.1,16.5,15.1,22.2
		c9,7.3,20.3,10.9,31.3,14.5c69.1,22.1,138.2,44.2,208.3,62.9c24.5,6.6,49.9,15.4,75.2,17.6
		C1479.3,4702.1,1498.7,4698.9,1498.4,4678.9z"/>
	<path class="st155" d="M1629.9,2883.2c-111,0-242.2,6.1-331.1,26.2c-16.1,122-21,163.3,5.3,320.1c38.9,231.2,52.5,324.4,71.9,413.8
		c-47.9,133.2-132.1,460.4-190.4,829.6l147.7,33c85.5-244.8,281.7-662.5,310.8-827.6C1655.9,3611.9,1654.2,2970,1629.9,2883.2z"/>
	<g>
		<path class="st2" d="M1616,2169c-37.9-8.5-74.5-22.3-108.1-41.7c-10.7-6.2-21.7-12.8-32.3-20c-2.1-13.3-4.9-26.5-7.7-39.8
			c-2.3-10.9-4.6-21.7-6.9-32.6c6.5,5.9,12.6,8.9,20.5,12.9c33.1,16.9,66.8,32.6,100.8,47.8c10.2,4.6,20.5,9.2,31.5,11.4L1616,2169z
			"/>
	</g>
	<path class="st151" d="M1677.6,1920.9c-2.4-9.6-5.3-19-8.6-28.2c-10.6-29-30.1-55.6-56.2-73.3c-50.1-33.8-120-25.5-160.4,19
		c-9.6,10.5-17.3,22.6-22.8,35.6c-13.6,31.9-14.3,66.1-6.9,99.1c6.5,29.2,19.4,57.4,35.2,82.1c9.8,15.2,21.1,29.5,34.5,41.8
		c7.7,7.1,16.1,13.4,25.2,18.9c18.1,10.9,38.6,17.9,59.8,18.6c19.2,0.6,38.7-4.4,54.9-14.5c18.2-11.4,29.3-28.9,37.2-48.2
		C1688.8,2024.5,1689.9,1970.5,1677.6,1920.9z"/>
	<g>
		<g>
			<path class="st151" d="M1466.6,2045.2c-18.2,9.1-41.3,7.8-58.2-3.6c-14.3-9.6-23.6-26.1-24.9-43.2c-0.2-3.1-0.2-6.2,0.1-9.4
				c0.5-5.5,2-10.9,4.5-15.7c6.5-11.9,20.6-18.9,34.1-17.9c13.5,1.1,26,9.9,32.5,21.8l4.6,26.1L1466.6,2045.2z"/>
		</g>
	</g>
	<path class="st154" d="M1523.7,1884.8c30.6-5.8,61.2-12.6,90.2-23.4c23.5-8.8,49.6-25.7,55.9-51.2c7.9-31.8-18.9-56.3-45.5-68.8
		c-52-24.4-116.3-20.1-163.8,12.8c-28.8,19.9-50.5,49.6-60.5,82.7c-5.7,19-8.1,47.7,14.3,56.5c26,10.2,58.1,0.6,84.5-4.1
		C1507,1887.9,1515.4,1886.4,1523.7,1884.8z"/>
	<path class="st154" d="M1348.1,1891.5c2.7-19.7,11.4-37.9,27.4-48.1c23.3-14.8,58.6-10.7,72.7,14.7c9.2,16.6,9.4,37.7,6.9,56
		c-1.2,8.6-3.4,17.1-8,24.6c-3.1,5-13.5,17.8-20.4,16.8c-2.3-0.3-4.7-0.7-6.7-0.8c-0.4,0-0.8-0.1-1.2-0.1c-7.1,0-13.7,1.8-19.9,5.4
		c-4.6,2.5-8.3,5.9-11.1,10.1c-8.7,9.5-21.9-6.9-26.5-13.9C1350.1,1939.3,1345,1914.4,1348.1,1891.5z"/>
	<path class="st156" d="M1303.7,2589.7c-0.1,0.7-0.2,1.5-0.2,2.2c-2.6,23.2-4.8,45.9-6.7,67.9c-19.8,224.9-23.6,394.9-19.8,466.8
		c143.8,17.5,385.8,8.3,549.3,18.4c-10.7-118-15.6-397.4-24-537.5c0.3-0.1,0.5-0.2,0.8-0.4c22.5-9.5,44.7-20.6,65.5-32.6
		c16.7-9.6,32.5-19.9,46.9-30.5c-12-39.1-23-78.5-37.3-116.8c-3.4-9.2-7.1-18.3-11-27.4c-21.2-48.7-53.5-92.4-93.9-126.9
		c-44.6-37.9-99.5-63.9-157-75.6c0,0.9,0.1,1.8,0.1,2.7c0,37.9-30.7,68.6-68.6,68.6c-37.9,0-68.6-30.7-68.6-68.6c0-1,0-1.9,0.1-2.9
		c-24.2,4.9-48,12.4-70.7,22.2c-72.3,31.4-130.4,90-179,150.6c-20.1,25.1-63.4,92.9-63.4,92.9
		C1202.2,2508.7,1252.7,2554.8,1303.7,2589.7z"/>
	<path class="st157" d="M1296.8,2659.8c13.6-20.1,27.1-40.3,40.7-60.4c20.9-31,41.3-64,46.4-101c-18,37.4-46.1,69.9-80.4,93.4
		C1300.9,2615.1,1298.7,2637.7,1296.8,2659.8z"/>
	<g>
		<g>
			<g>
				<path class="st137" d="M1631.6,2017.5c0.6,7.5,0.2,15.1-1.5,22.5c-1.5,6.3-3.9,12.5-7.5,17.9c-3.1,4.6-7.1,8.7-11.9,11.4
					c-4.4,2.4-9.3,3.9-14.3,3.5c-4.2-0.4-8.2-1.9-11.8-3.9c-4.3-2.5-8-5.8-11.2-9.6c-3.7-4.5-6.6-9.7-8.7-15.1
					c-2.5-6.5-4-13.4-4.5-20.3c0-0.1,0-0.2,0-0.3L1631.6,2017.5z"/>
			</g>
		</g>
		<g>
			
				<ellipse transform="matrix(0.9976 -6.920315e-02 6.920315e-02 0.9976 -134.8947 110.0128)" class="st2" cx="1520.4" cy="2001.9" rx="31.1" ry="25.3"/>
			<path class="st2" d="M1683.5,1985.2c-0.5-7.8-8.8-13.6-18.4-12.9c-9.6,0.7-17,7.5-16.4,15.3c0.5,7.8,8.8,13.6,18.4,12.9
				C1676.7,1999.9,1684,1993,1683.5,1985.2z"/>
		</g>
	</g>
	<path class="st151" d="M1788.6,2831.5c-2.9,11.2-19.2,7.8-27.6,7.6c-13.5-0.3-27.1-1.2-40.6-1.5c-10.1-0.3-20.2-0.5-30.3-0.8
		c-3.5-0.1-19.7-4.2-21.1,1.2c-1.2,4.8,12.2,6.3,14.9,7.3c6.5,2.4,13,4.8,19.5,7.1c13.1,4.6,26.2,9,39.5,12.9
		c1.2,0.4,2.3,0.9,3.3,1.6c3.8,1,7.6,2,11.4,2.9c6.9,1.7,9.9,10.3,5.9,16.1c-5.7,8.4-17.3,2.8-24.9,0.8c-12-3.1-24-6.4-36-9.7
		c-8.5-2.4-16.9-4.8-25.3-7.3c-4.5-1.3-23.6-8.7-23,1.3c0.1,2,3.7,4.1,5.1,5.1c4.3,3.2,9.2,5.3,13.8,7.9c12.4,6.9,24.8,14,37,21.3
		c6.7,4,6.7,14.3-0.1,18.4c-9.8,5.9-24.6-7.9-32.4-12.7c-12.5-7.6-25.2-14.8-38.2-21.4c-2.2-1.1-4.5-2.3-6.9-2.8
		c-3.1-0.7-6.4-0.5-9.6-0.5c-29.4,0.2-59.3-12-82-30.4c-2.8-2.2-5.4-4.6-8-7.1c-2-2-4.2-5.5-6.9-6.5c-3.7-1.4-9.4-0.9-13.4-1.2
		c-11.1-1-22.2-2.4-33.4-3.3c-17.8-1.5-35.7-2.5-53.5-3c-31.6-0.9-63.1-1.7-94.7-1.6c-13.9,0-28.8-0.2-44.4-0.6
		c-60.9-1.7-131.6-6.5-185.4-12.1c-19.2-2-40-5-53.1-19.2c-10.8-11.6-13.9-28.8-11.9-44.5c2-15.7,8.6-30.5,15.2-44.9
		c13.8-30.4,28-60.7,42.4-90.9c24.2-50.7,51.4-99.7,80.8-147.4c35.3,42.1,81.9,83.9,129.1,116.1c0,0.1,0,0.2,0,0.2
		c-25.3,31.9-50.7,64.7-68.4,88.8c-6.7,9.2-12.3,17.1-16.3,23.3c-0.1,0.2-0.2,0.3-0.3,0.5c0.4-0.6,11.9,2.7,13.2,3
		c4.6,1,9.1,2.1,13.7,3.1c9.1,2.1,18.1,4.1,27.1,6.2c6.5,1.5,12.9,2.9,19.4,4.4c11.4,2.6,22.8,5.1,34.2,7.6
		c35.5,7.7,71.1,15.1,106.8,21.6c33.2,6.1,67.2,11.2,99.9,20.2c3.7,1,7.5,2.1,11.3,3.1c7.3-5.1,15-9.5,23.1-13.1
		c10-4.4,20.2-5.6,30.5-8.9c17.8-5.8,34.5-15.3,51.8-22.3c5.4-2.2,11.1-4.3,16.9-3.9c0.2,0,0.4,0,0.6,0.1c5.6,0.7,11.2,4.4,12.2,9.9
		c0.7,4.3-1.4,8.6-4.4,11.8c-5.3,5.5-12.7,9.5-19.4,13.1c-4.3,2.3-9.2,4.4-12.9,7.5c-5.8,4.7,0.9,5.4,5.9,5.8
		c5.4,0.4,10.9,0.3,16.3-0.2c10.7-0.9,21.4-3,32.1-4.3c0,0,72.3-9,72.6-9c7.1-0.9,13.5,7.1,11.6,13.9c-2.6,9.4-16,8.6-23.6,10.2
		c-12.6,2.6-25.3,5.3-37.9,8.1c-9.1,2-18.1,4-27.2,6c-5.3,1.2-11.2,0.4-16.6,1.6c-2,0.4-7.7,1.2-7.9,4.1c-0.2,3,5.1,3,7.1,3.3
		c4.9,0.9,9.8,1.7,14.8,2.3c9.6,1.3,19.2,2.1,28.8,2.9c19.6,1.7,39.3,3.1,58.6,7.1c0.8,0.2,1.6,0.4,2.3,0.7
		C1785.7,2819,1790.1,2825.6,1788.6,2831.5z"/>
	<g>
		<g>
			<path class="st158" d="M3567.4,1226.8l40.1-90.5l-116.9-141.7L3567.4,1226.8z M3602.2,1137l-34.2,77.1l-65.4-197.8L3602.2,1137z"
				/>
			<polygon class="st158" points="3502.6,1016.3 3602.2,1137 3568,1214.1 			"/>
			<path class="st158" d="M3571.6,1232.4l95.1-24.4l-54.8-66.5L3571.6,1232.4z M3658.6,1205.4l-79,20.3l33.5-75.5L3658.6,1205.4z"/>
			<polygon class="st158" points="3613.1,1150.2 3658.6,1205.4 3579.6,1225.7 			"/>
			<path class="st158" d="M3615.6,1138.5l54.8,66.5l42-88.8L3615.6,1138.5z M3623.8,1141.3l80.5-18.5l-34.9,73.7L3623.8,1141.3z"/>
			<polygon class="st158" points="3704.3,1122.8 3669.4,1196.5 3623.8,1141.3 			"/>
			<path class="st158" d="M3494.3,991.5l116.9,141.7l96.5-22.2L3494.3,991.5z M3513.4,1007.4l181.8,101.8l-82.2,18.9L3513.4,1007.4z
				"/>
			<polygon class="st158" points="3695.2,1109.2 3612.9,1128.1 3513.4,1007.4 			"/>
			<path class="st158" d="M3676.7,1212.7l57.6,69.8l-15.3-159L3676.7,1212.7z M3682.1,1212l33.9-71.6l12.3,127.6L3682.1,1212z"/>
			<polygon class="st158" points="3716,1140.4 3728.3,1268 3682.1,1212 			"/>
			<path class="st158" d="M3577.5,1240.2l153.1,45.3l-57.6-69.8L3577.5,1240.2z M3717.6,1276.9l-122.9-36.3l76.7-19.7L3717.6,1276.9
				z"/>
			<polygon class="st158" points="3671.4,1220.9 3717.6,1276.9 3594.7,1240.5 			"/>
		</g>
	</g>
	<g>
		<g>
			<polygon class="st135" points="3607.5,1136.3 3567.4,1226.8 3490.6,994.6 			"/>
			<polygon class="st135" points="3666.7,1208.1 3571.6,1232.4 3611.9,1141.6 			"/>
			<polygon class="st135" points="3712.4,1116.2 3670.4,1205 3615.6,1138.5 			"/>
			<polygon class="st135" points="3707.7,1111 3611.2,1133.2 3494.3,991.5 			"/>
			<polygon class="st135" points="3734.3,1282.4 3676.8,1212.7 3719,1123.5 			"/>
			<polygon class="st135" points="3730.6,1285.5 3577.5,1240.2 3673.1,1215.7 			"/>
		</g>
	</g>
	<g class="st134">
		<g>
			<polygon points="3712.4,1116.2 3709.8,1121.8 3619,1142.7 3615.6,1138.5 			"/>
			<polygon points="3707.7,1111 3701.5,1112.4 3501.9,1000.7 3494.3,991.5 			"/>
			<polygon points="3734.3,1282.4 3733.8,1281.8 3719,1128.4 3678.2,1214.5 3676.8,1212.7 3719,1123.5 			"/>
		</g>
	</g>
</g>
</svg>
